<svg width="1856" height="920" viewBox="0 0 1856 920" fill="none" xmlns="http://www.w3.org/2000/svg">
<mask id="mask0_2124_668" style="mask-type:luminance" maskUnits="userSpaceOnUse" x="0" y="-687" width="1856" height="2647">
<path d="M1855.5 -686.5L0.5 -686.5L0.5 1958.91H1855.5L1855.5 -686.5Z" fill="white" stroke="white"/>
</mask>
<g mask="url(#mask0_2124_668)">
<path d="M-117.622 -204.918C-169.358 -94.4304 -163.094 38.1105 -101.15 143.746C-39.2057 249.602 77.2584 326.348 205.322 345.976C368.186 370.896 545.202 308.706 695.538 372.219C822.906 426.03 890.882 553.278 954.45 668.838C1018.25 784.618 1101.07 908.117 1236.56 940.976C1327.97 963.25 1432.14 939.874 1514.03 983.319C1597.32 1027.65 1627.95 1127.99 1618.67 1216.64C1609.62 1305.3 1569.25 1388.22 1543.73 1474.23C1466.01 1734.46 1530.04 2027.77 1711.23 2239.26M-112.982 -216.165C-144.766 -146.697 -152.887 -68.4075 -138.271 5.25087C-129.455 50.0192 -112.286 93.2439 -87.4625 132.058C-70.7585 157.86 -50.8065 181.678 -28.3025 203.07C25.9855 254.234 95.1215 290.842 170.753 312.013C188.849 317.086 207.178 321.276 225.738 324.363C288.842 335.17 353.106 335.17 415.746 334.729C497.178 334.067 576.289 332.303 650.065 355.018C666.305 360.09 682.546 366.265 698.322 373.984C755.394 401.771 799.938 445.216 838.682 495.498C881.834 551.513 918.025 616.13 953.985 675.012C958.857 682.952 963.73 690.891 968.834 698.83C1005.72 756.389 1047.71 811.523 1099.22 854.086C1140.05 888.048 1187.38 913.851 1243.06 924.877C1272.75 930.832 1303.84 932.155 1334.93 932.375C1399.43 933.258 1465.55 930.17 1521.46 959.501C1594.31 997.874 1626.09 1079.69 1627.25 1158.42C1627.48 1169.45 1627.02 1180.26 1626.09 1191.06C1618.2 1279.05 1580.85 1361.53 1558.11 1446.66C1552.31 1468.05 1547.67 1489.66 1543.73 1511.28C1522.62 1631.47 1531.43 1755.63 1566.7 1871.41C1601.96 1986.75 1663.44 2093.05 1744.64 2180.6M-108.11 -227.412C-139.43 -157.062 -145.694 -78.111 -128.758 -4.67319C-118.55 39.8747 -99.7576 82.4376 -73.3096 120.149C-55.6776 145.29 -34.7975 168.225 -11.3655 188.294C44.7785 236.591 115.074 269.23 191.17 289.96C209.498 295.032 228.059 299.223 246.619 302.751C309.955 314.88 373.059 318.188 433.611 321.055C512.027 324.804 586.499 327.892 656.099 354.135C671.411 359.869 686.723 366.706 701.571 375.086C755.395 405.079 797.619 450.068 835.667 501.232C877.891 558.35 915.707 623.407 953.987 680.305C959.091 688.024 964.427 695.522 969.763 703.02C1009.2 757.933 1052.82 807.774 1105.25 845.705C1146.78 876.139 1194.34 898.634 1249.79 907.455C1279.48 912.086 1310.57 912.307 1341.66 911.645C1406.15 910.322 1472.51 905.25 1529.35 934.581C1601.73 972.292 1632.82 1053.89 1634.67 1131.96C1634.91 1142.76 1634.67 1153.57 1633.75 1164.38C1627.02 1251.71 1592.68 1333.75 1572.73 1417.99C1567.63 1439.16 1563.68 1460.55 1560.67 1481.95C1543.5 1600.59 1556.26 1722.33 1595.47 1833.26C1634.44 1943.74 1699.17 2042.54 1778.75 2121.27M-103.238 -238.438C-133.862 -167.206 -138.734 -87.3726 -119.478 -14.1553C-107.878 30.172 -87.4617 72.0734 -59.3897 108.461C-40.8297 132.72 -19.0217 154.774 5.33834 173.74C63.3383 219.17 134.562 247.618 211.586 268.349C230.146 273.2 248.706 277.831 267.266 281.581C330.602 294.813 393.01 301.649 451.242 308.045C526.874 316.425 596.474 324.364 661.666 353.916C676.05 360.532 690.434 368.03 704.354 377.072C754.93 409.27 794.834 455.802 831.954 508.069C873.482 566.29 912.458 631.788 953.29 686.701C958.858 694.199 964.426 701.477 969.994 708.534C1011.75 760.801 1057.46 805.349 1110.59 838.87C1152.81 865.554 1200.6 885.182 1256.05 891.357C1285.75 894.665 1316.6 893.783 1347.69 892.018C1411.95 888.49 1479 881.433 1536.31 910.764C1608.23 948.034 1638.85 1029.19 1641.17 1106.6C1641.4 1117.4 1641.4 1127.99 1640.71 1138.58C1635.14 1225.25 1603.59 1306.84 1586.65 1390.2C1582.24 1411.16 1578.99 1432.33 1576.67 1453.5C1563.45 1570.6 1580.39 1689.91 1623.07 1796.21C1665.76 1902.06 1733.74 1993.14 1811.69 2062.83M-98.3662 -249.69C-128.526 -177.575 -131.774 -96.8596 -109.966 -24.0834C-96.9742 20.0233 -74.7022 61.2632 -45.4702 96.5487C-25.9822 120.146 -3.0142 141.096 21.8098 158.739C81.6658 201.302 154.05 225.781 231.77 246.071C250.562 250.922 269.354 255.554 287.914 259.964C351.482 274.519 412.962 284.664 468.874 294.588C541.49 307.6 606.45 320.391 667.466 353.471C680.922 360.748 694.146 369.128 707.37 378.611C754.698 413.235 792.282 461.091 828.706 514.24C869.306 573.563 909.906 639.282 953.058 692.431C958.858 699.488 964.658 706.545 970.922 713.382C1015.23 763.002 1062.56 802.257 1116.85 831.367C1159.77 854.524 1207.79 871.064 1263.24 874.813C1292.94 876.798 1323.79 874.813 1354.65 871.946C1418.68 866.432 1486.43 856.949 1544.43 886.501C1616.11 922.889 1645.81 1004.05 1648.83 1080.79C1649.29 1091.38 1649.29 1102.18 1648.59 1112.55C1644.19 1198.56 1615.65 1279.71 1601.5 1362.19C1598.02 1382.92 1595.23 1403.87 1593.61 1424.6C1584.33 1540.16 1605.44 1657.05 1651.84 1758.49C1698.24 1859.5 1769.47 1943.08 1845.79 2003.73M-93.4937 -260.933C-123.19 -187.936 -124.814 -106.339 -100.686 -33.783C-86.0697 10.1033 -62.4057 50.6816 -31.5497 84.8643C-10.9017 107.8 12.7623 127.648 38.5143 144.188C100.226 183.884 173.77 204.173 252.186 224.242C271.21 229.093 290.002 233.945 308.562 238.576C372.13 254.234 432.914 267.907 486.506 281.36C556.338 298.782 616.658 316.645 673.266 353.034C685.794 361.193 698.09 370.015 710.386 380.38C754.466 417.209 789.73 466.608 825.458 520.86C865.13 581.507 907.354 647.446 952.826 698.61C958.858 705.447 965.122 712.063 971.618 718.458C1018.48 765.432 1067.67 799.174 1122.65 823.873C1166.27 843.501 1214.75 856.954 1269.97 858.277C1299.67 858.938 1330.52 855.851 1361.38 852.102C1425.18 844.383 1493.62 832.915 1552.08 862.467C1623.31 898.414 1652.54 979.129 1656.02 1055.21C1656.48 1065.8 1656.48 1076.38 1656.25 1086.75C1653 1172.1 1627.48 1252.81 1616.11 1334.41C1613.33 1354.92 1611.24 1375.43 1610.31 1396.16C1604.98 1510.17 1630.03 1624.41 1680.38 1721.23C1730.49 1817.6 1804.96 1893.68 1879.67 1945.07M-88.6219 -272.18C-117.854 -198.301 -117.622 -115.822 -91.174 -43.7071C-75.166 -0.0414216 -49.878 39.8753 -17.398 72.9553C4.17802 95.0087 28.7701 113.975 55.2181 129.412C119.018 166.021 193.258 182.34 272.602 202.188C291.858 207.04 310.65 211.892 329.442 216.964C393.242 233.945 452.866 250.706 504.37 267.907C571.186 289.961 626.866 312.676 679.298 352.592C690.898 361.414 702.266 371.117 713.634 381.923C754.466 420.958 787.41 471.901 822.442 527.035C861.418 588.784 905.034 655.165 952.826 704.344C959.322 710.96 965.818 717.355 972.546 723.31C1021.73 767.637 1072.77 796.086 1128.68 816.375C1172.99 832.253 1221.71 842.839 1276.93 841.516C1306.63 840.854 1337.48 836.664 1368.11 831.812C1431.67 821.888 1500.81 808.436 1559.97 837.987C1630.96 873.273 1659.27 953.768 1663.44 1029.19C1664.14 1039.78 1664.14 1050.14 1663.91 1060.51C1661.82 1144.97 1639.08 1225.47 1630.73 1306.18C1628.64 1326.47 1627.48 1346.76 1627.25 1367.27C1625.86 1479.74 1655.09 1591.55 1709.15 1683.51C1762.97 1775.04 1840.69 1843.62 1913.77 1885.96M-83.9824 -283.206C-112.75 -208.666 -110.894 -125.083 -82.1265 -53.4098C-64.7265 -9.96465 -37.8145 29.2904 -3.71049 61.2678C18.7935 82.6596 44.3135 100.523 71.6895 114.637C137.346 148.379 212.746 160.729 292.786 180.356C312.042 184.987 331.298 190.28 350.09 195.573C413.89 213.657 472.818 233.946 522.002 254.676C586.034 281.361 636.841 308.707 684.865 352.152C695.537 361.635 705.978 372 716.418 383.688C754.002 424.928 784.858 477.636 818.73 533.651C856.778 596.504 901.786 663.325 952.362 710.52C959.09 716.915 966.05 722.87 973.01 728.603C1024.75 770.284 1077.41 793.44 1134.25 809.098C1179.03 821.448 1228.21 828.726 1283.19 825.197C1312.89 823.212 1343.51 817.92 1374.37 811.965C1437.94 800.056 1507.31 784.398 1567.16 813.729C1637.69 848.574 1665.53 928.628 1670.17 1003.39C1670.87 1013.75 1671.1 1024.12 1671.1 1034.48C1670.4 1118.29 1650.45 1198.34 1644.88 1278.17C1643.49 1298.24 1643.03 1318.31 1643.49 1338.38C1646.04 1449.31 1679.45 1558.69 1736.99 1645.8C1794.52 1732.69 1875.49 1793.56 1946.95 1827.08M-79.1097 -294.453C-107.414 -219.031 -103.934 -134.787 -72.6137 -63.1133C-53.8217 -19.8887 -25.0537 18.7048 10.2103 49.5795C33.8743 70.0892 60.3223 87.0703 88.3943 100.082C155.906 130.957 232.234 139.116 313.202 158.523C332.69 163.154 351.946 168.447 370.738 174.181C434.77 193.368 492.77 217.185 539.634 241.444C600.65 272.76 647.05 304.958 690.666 351.711C700.178 362.076 709.922 373.103 719.434 385.232C753.77 428.898 782.306 482.929 815.482 540.047C852.602 604.002 899.234 671.265 952.13 716.254C959.09 722.208 966.514 727.942 973.706 733.455C1027.99 772.49 1082.28 790.353 1140.05 801.6C1185.52 810.422 1234.94 814.612 1289.92 808.657C1319.62 805.349 1350.24 798.954 1380.87 792.117C1444.2 778.003 1514.27 760.36 1574.82 789.691C1644.88 823.874 1672.03 903.707 1677.36 977.807C1678.06 988.172 1678.52 998.317 1678.52 1008.46C1678.99 1091.6 1662.05 1171.22 1659.27 1250.39C1658.57 1270.23 1658.8 1290.08 1659.96 1309.93C1666.46 1419.32 1704.04 1526.05 1765.29 1608.53C1826.54 1690.57 1910.75 1743.94 1980.59 1768.42M-74.2375 -305.701C-102.078 -229.396 -96.9735 -144.27 -63.3335 -73.0374C-43.1495 -30.0333 -12.7575 7.89858 24.1305 37.6707C48.7225 57.5187 76.0985 73.6177 104.867 85.306C174.235 113.314 251.723 117.504 333.387 136.47C353.107 141.101 372.595 146.614 391.387 152.569C455.651 173.078 512.491 200.204 557.499 227.991C615.731 263.718 657.259 300.768 696.699 351.27C705.283 362.297 714.099 374.205 722.683 386.776C753.771 432.647 779.986 488.221 812.466 546.222C848.89 611.279 896.915 678.983 952.131 721.987C959.555 727.721 966.978 733.235 974.866 738.086C1031.47 774.474 1087.62 787.045 1146.31 793.661C1192.48 798.954 1242.36 800.056 1297.11 791.676C1326.81 787.045 1357.43 779.547 1388.06 771.608C1451.16 755.288 1521.92 735.66 1582.94 764.991C1652.77 798.513 1679.22 878.346 1685.02 951.563C1685.95 961.708 1686.41 972.073 1686.64 981.997C1688.27 1064.48 1674.11 1143.65 1674.35 1221.94C1674.35 1241.57 1675.27 1261.19 1677.13 1280.82C1687.57 1388.66 1729.1 1492.97 1794.29 1570.6C1859.25 1647.79 1946.71 1693.88 2014.92 1709.1M-69.3661 -316.727C-96.7421 -239.54 -90.014 -153.531 -53.822 -82.5195C-32.246 -39.7359 -0.230047 -2.46575 38.282 25.9831C63.802 44.949 92.106 60.1659 121.802 70.7515C193.026 95.8924 271.674 95.8924 354.034 114.638C373.986 119.269 393.474 124.782 412.266 131.178C476.53 152.79 532.674 183.444 575.362 214.76C630.578 255.118 667.466 297.019 702.73 350.83C710.386 362.738 718.042 375.088 725.93 388.541C753.77 436.617 777.666 493.736 809.218 552.839C844.714 618.999 894.362 687.144 951.898 728.163C959.554 733.676 967.442 738.749 975.562 743.38C1034.72 776.901 1092.49 784.399 1152.11 786.605C1198.75 788.369 1249.09 786.164 1303.84 775.357C1333.54 769.403 1364.16 760.802 1394.55 751.76C1457.43 733.235 1528.65 711.623 1590.59 740.954C1659.96 774.034 1685.71 853.426 1692.21 925.982C1693.14 936.127 1693.83 946.271 1694.07 956.195C1696.85 1038.01 1685.71 1116.74 1688.73 1194.15C1689.43 1213.56 1691.05 1232.97 1693.83 1252.37C1707.99 1358.67 1753.92 1460.56 1822.83 1533.33C1891.5 1605.89 1982.21 1644.26 2048.79 1650.44M-64.4946 -327.978C-91.4066 -249.909 -82.8226 -163.019 -44.5425 -92.4477C-21.5745 -49.6641 12.2974 -13.276 51.9694 14.0702C78.4174 32.3745 107.881 46.4886 138.273 55.7511C211.353 78.025 290.929 74.0554 374.217 92.3597C394.401 96.7704 414.121 102.725 432.913 109.341C497.409 132.276 552.626 166.239 592.994 200.862C645.426 245.851 677.674 292.384 708.298 349.943C715.026 362.514 721.754 375.746 728.714 389.639C753.306 440.142 774.882 498.583 805.738 558.568C840.306 625.831 891.346 694.197 951.434 733.452C959.554 738.745 967.674 743.596 976.026 747.786C1037.74 778.661 1097.13 780.867 1157.68 778.661C1205.01 776.897 1255.59 771.604 1310.34 758.372C1340.03 751.094 1370.43 741.391 1401.05 731.246C1463.69 710.737 1535.61 686.919 1598.02 716.25C1666.92 748.669 1691.98 827.84 1699.17 899.734C1700.1 909.658 1701.03 919.803 1701.49 929.727C1705.43 1010.88 1697.31 1089.17 1703.11 1165.7C1704.51 1184.88 1707.06 1204.07 1710.31 1223.04C1728.4 1327.57 1778.51 1427.25 1850.9 1495.18C1923.28 1562.88 2017.24 1593.75 2082.2 1590.89M-59.6224 -339.225C-86.0704 -260.274 -75.8624 -172.502 -35.0304 -102.151C-10.4384 -59.5882 24.8256 -23.8617 66.1216 2.38186C93.7296 19.804 123.89 33.036 154.978 41.1958C230.146 60.6028 310.65 52.4431 394.402 70.7474C414.818 75.1581 434.538 81.1125 453.562 88.1695C518.058 112.208 572.578 149.698 610.626 187.851C660.042 237.25 687.65 288.855 714.098 349.723C719.898 362.955 725.698 377.069 731.73 391.624C753.074 444.332 772.33 504.317 802.49 565.405C836.362 633.77 888.794 702.577 951.202 739.847C959.554 744.919 968.138 749.33 976.722 753.079C1040.75 781.308 1102.23 778.22 1163.48 771.384C1211.51 766.091 1262.31 757.71 1316.83 742.053C1346.53 733.452 1376.92 722.646 1407.31 711.619C1469.95 688.904 1542.34 663.101 1605.44 692.432C1674.11 724.41 1698.47 803.14 1706.13 874.373C1707.29 884.297 1707.99 894.221 1708.68 904.145C1713.79 984.64 1708.68 1062.49 1717.27 1138.13C1719.35 1157.1 1722.6 1176.06 1726.55 1194.81C1748.59 1297.8 1802.87 1394.83 1878.97 1458.13C1955.07 1521.2 2052.27 1544.35 2115.61 1532.45M-54.9823 -350.468C-80.7343 -270.635 -69.1343 -181.981 -25.9823 -112.071C0.00171749 -69.7289 36.8897 -34.664 79.8097 -9.52309C108.346 7.23748 139.434 19.3669 171.45 26.424C248.474 42.964 329.906 30.8346 414.586 48.6979C435.234 53.1086 455.186 59.2835 473.978 66.5611C538.706 91.9225 592.066 132.501 628.026 174.402C674.658 228.433 697.394 284.669 719.666 349.286C724.538 363.4 729.41 377.955 734.282 393.172C752.378 448.085 769.314 509.834 798.778 571.584C831.722 641.052 885.778 710.3 950.506 745.585C959.09 750.216 968.138 754.406 977.186 757.935C1043.77 783.517 1106.87 775.357 1169.05 763.889C1217.54 755.068 1268.81 743.38 1323.33 725.296C1353.26 715.372 1383.42 703.463 1413.81 691.334C1476.22 666.413 1549.07 638.626 1612.87 667.957C1681.07 699.273 1704.74 777.783 1713.09 848.354C1714.25 858.278 1715.18 867.981 1716.11 877.905C1722.6 957.739 1720.05 1035.15 1731.65 1109.91C1734.43 1128.65 1738.38 1147.4 1743.25 1165.92C1769.23 1267.37 1827.47 1361.98 1907.51 1420.42C1987.31 1478.64 2087.77 1494.3 2149.48 1473.57M-50.1097 -361.498C-75.3977 -281.004 -62.1737 -191.467 -16.4697 -121.558C10.9063 -79.4356 49.4183 -45.0322 93.9623 -20.994C123.426 -5.1156 155.442 6.13162 188.154 11.8655C267.034 25.5386 349.626 9.21905 435.002 26.8618C455.882 31.0519 475.834 37.4474 494.858 45.1661C559.586 71.6302 612.25 115.737 645.89 161.167C689.506 219.829 707.834 280.917 725.698 348.841C729.642 363.617 733.586 379.054 737.53 394.933C752.378 452.051 766.994 515.344 795.53 578.197C827.546 648.767 883.226 718.456 950.274 751.757C959.322 756.167 968.37 760.137 977.882 763.225C1046.79 786.16 1111.75 772.707 1174.85 756.609C1224.03 744.259 1275.77 729.483 1330.06 708.973C1359.99 697.726 1390.15 684.714 1420.31 671.482C1482.48 644.577 1556.03 614.585 1620.52 643.916C1688.27 674.79 1711.47 752.859 1720.28 822.769C1721.44 832.472 1722.6 842.176 1723.53 851.879C1731.19 931.051 1731.65 1008.02 1746.03 1081.9C1749.75 1100.42 1754.15 1118.95 1759.72 1137.03C1789.65 1236.93 1852.06 1329.11 1935.81 1382.7C2019.33 1436.29 2123.03 1444.45 2183.12 1414.46M-45.238 -372.742C-70.062 -291.365 -54.982 -200.946 -7.18997 -131.478C21.578 -89.5761 61.946 -55.8344 107.65 -32.8989C138.274 -17.6821 171.218 -7.53753 204.626 -2.90632C285.362 7.89984 368.882 -12.3893 455.186 4.81235C476.298 9.0025 496.25 15.398 515.274 23.5577C580.234 51.345 631.97 98.7598 663.29 147.718C704.122 211.012 717.578 276.731 731.034 348.184C734.05 363.842 737.066 379.72 740.082 396.26C751.682 455.804 763.978 520.421 791.818 584.155C823.138 656.049 880.21 725.958 949.578 757.274C958.858 761.464 968.37 764.993 978.114 767.86C1049.57 788.149 1116.15 769.403 1180.19 748.894C1230.07 733.015 1282.03 714.932 1336.32 692.217C1366.71 679.867 1396.87 665.752 1427.03 651.418C1488.98 622.307 1563.22 590.33 1628.18 619.661C1695.69 650.095 1717.96 727.723 1727.47 796.97C1728.87 806.674 1730.03 816.377 1731.19 825.86C1740 904.15 1743.48 980.675 1760.65 1053.89C1765.06 1072.2 1770.16 1090.5 1776.43 1108.36C1810.3 1206.72 1876.88 1296.26 1964.11 1345.22C2051.35 1393.96 2158.3 1394.62 2216.76 1355.58M-40.3664 -383.989C-64.7264 -301.73 -48.0224 -210.429 2.32162 -141.181C32.4816 -99.5002 74.4736 -66.4201 121.802 -44.5873C153.354 -30.2526 187.226 -20.7696 221.562 -17.4616C304.154 -9.52236 388.834 -34.0017 475.834 -16.8C497.178 -12.6099 517.362 -5.99381 536.386 2.38648C601.346 31.2764 652.154 82.2197 681.386 134.707C719.202 202.411 728.25 273.202 737.298 348.184C739.386 364.503 741.242 381.264 743.562 398.465C751.914 460.215 761.89 526.375 789.034 591.212C819.426 664.209 877.89 734.559 949.81 763.89C959.322 767.86 969.298 770.947 979.274 773.373C1053.28 791.016 1121.49 766.977 1186.45 741.837C1237.03 722.43 1289.23 701.258 1343.51 676.118C1373.44 662.224 1403.37 647.007 1433.53 631.79C1495.24 600.474 1569.95 566.512 1635.83 595.843C1702.88 625.615 1724.69 703.023 1734.67 771.609C1736.06 781.092 1737.45 790.795 1738.61 800.278C1748.59 877.906 1754.85 953.99 1775.03 1026.33C1780.14 1044.41 1785.94 1062.49 1792.9 1080.14C1830.71 1176.95 1901.47 1264.06 1992.42 1308.39C2083.36 1352.5 2193.33 1345.44 2250.4 1297.36M-35.494 -395.015C-59.39 -311.874 -41.062 -219.69 11.602 -150.884C43.154 -109.423 86.77 -77.0049 135.722 -56.4953C168.202 -42.8222 203.002 -34.4419 238.034 -32.2366C322.714 -27.1643 408.322 -55.6132 496.018 -38.8526C517.594 -34.6624 537.778 -28.0464 557.034 -19.2251C622.226 10.9881 672.106 65.2393 699.018 121.255C734.05 193.59 738.458 269.013 743.098 347.523C744.258 364.504 745.186 382.147 746.578 399.789C751.682 463.744 759.338 531.448 785.554 597.388C815.018 671.487 875.106 742.278 949.578 769.404C959.554 773.153 969.762 776.02 980.202 778.005C1056.53 793.001 1126.83 763.67 1192.71 734.119C1243.99 711.183 1296.42 686.704 1350.47 659.137C1380.4 643.92 1410.33 627.601 1440.26 611.281C1501.97 577.76 1577.14 541.813 1643.49 570.924C1710.07 600.255 1731.19 677.221 1742.09 745.145C1743.48 754.628 1745.11 764.111 1746.5 773.594C1757.63 850.561 1766.91 926.204 1789.88 997.877C1795.68 1015.74 1802.41 1033.6 1810.07 1051.03C1851.83 1146.3 1926.53 1230.98 2021.42 1270.46C2116.07 1309.71 2229.29 1295.16 2284.74 1238.04M-30.6213 -406.266C-54.0533 -322.243 -34.1014 -229.177 21.1146 -160.812C54.0587 -119.572 99.2986 -87.8152 149.643 -68.4082C183.051 -55.3967 219.011 -48.119 254.739 -47.2369C341.275 -45.0316 427.811 -77.6706 516.435 -61.1306C538.011 -57.1609 558.659 -50.1039 577.683 -41.062C643.107 -9.74616 692.059 48.0338 716.883 107.578C748.899 184.544 748.667 264.819 749.131 346.857C749.131 364.721 749.363 382.804 749.827 401.329C751.683 467.71 757.019 536.737 782.539 603.559C811.307 678.761 872.787 749.773 949.579 775.134C959.787 778.442 970.227 781.088 981.131 782.853C1060.01 795.203 1131.93 760.799 1198.75 726.616C1250.71 700.152 1303.38 672.586 1357.43 642.593C1387.13 626.053 1417.29 608.631 1447.22 591.209C1508.7 555.703 1584.33 517.771 1651.61 546.661C1717.73 575.551 1738.38 652.297 1749.75 719.339C1751.37 728.822 1752.99 738.084 1754.39 747.567C1766.68 823.872 1778.98 899.074 1804.73 969.866C1811.23 987.729 1818.65 1005.15 1827 1022.13C1872.71 1115.86 1951.59 1198.12 2049.95 1232.74C2148.32 1267.37 2264.79 1245.31 2318.61 1179.15M-25.9824 -417.513C-48.9504 -332.608 -27.1425 -238.66 30.1615 -170.515C64.7295 -129.496 111.593 -98.4009 163.329 -80.0966C197.897 -67.9672 234.554 -61.5717 271.21 -61.7922C359.602 -62.4538 447.298 -99.0625 536.618 -82.9635C558.426 -78.9939 579.073 -71.9368 598.329 -62.2333C663.753 -29.5943 712.01 31.4937 734.514 94.3458C763.746 175.723 758.874 261.069 754.698 346.416C753.77 364.941 753.074 383.907 752.61 402.873C751.218 471.459 754.234 542.25 779.058 609.954C806.898 686.259 870.002 757.712 949.114 781.088C959.554 784.176 970.458 786.381 981.594 787.704C1063.03 797.408 1136.57 757.712 1204.31 718.898C1256.75 688.905 1309.87 658.03 1363.93 625.832C1393.63 607.969 1423.55 589.444 1453.48 571.14C1514.73 533.429 1591.06 493.512 1658.8 522.402C1724.69 550.851 1744.41 627.156 1756.47 693.536C1758.1 702.799 1759.72 712.061 1761.58 721.324C1775.27 796.967 1790.11 871.728 1818.88 941.637C1826.07 959.28 1834.19 976.481 1843.24 993.242C1892.89 1085.43 1975.95 1165.04 2078.03 1195.03C2180.11 1224.8 2299.82 1195.25 2352.02 1120.05M-21.1102 -428.761C-43.6142 -342.973 -20.1822 -248.364 39.6738 -180.44C75.6338 -139.641 124.122 -109.207 177.482 -92.0055C212.978 -80.5378 250.562 -75.2449 287.914 -76.5681C378.162 -80.0967 466.786 -120.895 557.034 -104.796C579.074 -100.827 599.954 -93.5492 618.978 -83.6252C684.634 -49.8835 731.73 14.5123 752.146 81.1136C778.362 167.122 768.85 257.1 760.498 345.975C758.642 365.382 757.018 384.789 755.626 404.637C750.986 475.428 751.682 547.763 775.81 616.349C802.722 693.757 867.218 765.651 948.882 787.043C959.786 789.91 970.922 791.894 982.29 792.776C1066.04 799.833 1141.67 754.845 1210.11 711.62C1263.24 678.099 1316.6 644.137 1370.66 609.292C1400.35 590.106 1430.28 570.699 1460.21 551.071C1521.23 511.155 1598.02 469.253 1666.69 498.143C1732.11 525.93 1751.37 602.015 1763.9 667.734C1765.75 676.996 1767.38 686.259 1769.23 695.301C1784.08 770.282 1801.95 844.602 1833.5 913.629C1841.39 931.051 1850.2 948.032 1859.95 964.572C1913.54 1055.21 2000.54 1132.4 2106.56 1157.54C2212.59 1182.68 2335.31 1145.41 2385.89 1061.17M-16.2382 -439.787C-38.2782 -353.337 -13.2222 -257.626 48.9538 -189.922C111.13 -122.218 209.034 -84.5066 304.386 -91.1226C396.49 -97.5181 486.274 -142.507 577.218 -126.628C675.818 -109.427 746.346 -22.757 769.778 67.8824C793.21 158.522 779.058 253.351 766.298 345.755C753.538 438.159 742.866 533.87 772.33 622.966C801.794 712.062 882.762 792.998 982.754 798.07C1069.06 802.481 1146.31 752.199 1215.68 704.343C1299.2 646.784 1382.95 589.004 1466.47 531.445C1527.49 489.323 1604.75 445.436 1673.88 474.326C1738.84 501.452 1757.4 577.316 1770.63 642.373C1791.27 744.48 1818.88 847.249 1876.19 936.124C1933.72 1025.22 2024.9 1099.98 2134.63 1120.27C2244.37 1140.56 2370.35 1095.79 2419.3 1002.51M-22.9656 -389.065C-34.7976 -306.585 -1.85366 -220.798 61.2504 -163.68C124.586 -106.561 217.154 -79.6561 312.042 -92.2265C402.29 -104.135 493.002 -150.227 585.338 -136.554C685.098 -121.557 759.57 -37.093 784.858 53.767C809.45 142.201 795.53 235.487 785.09 326.347C774.186 420.735 766.762 518.432 796.922 609.512C826.386 697.946 904.57 778.882 1003.63 785.498C1089.01 791.232 1166.5 742.494 1235.63 695.08C1318.23 638.402 1400.59 581.284 1483.18 524.607C1544.19 482.926 1621.68 439.922 1690.82 468.812C1756.01 496.158 1775.5 571.801 1788.95 637.079C1809.37 737.643 1836.05 838.868 1892.66 926.861C1949.27 1014.85 2039.75 1088.51 2148.09 1108.36C2256.43 1128.21 2380.79 1084.54 2430.43 993.241M-29.926 -338.561C-31.55 -260.271 9.04997 -184.408 73.314 -137.875C137.578 -91.3425 225.042 -75.2435 319.234 -93.7683C407.626 -111.191 499.034 -158.385 592.994 -146.696C693.914 -133.685 772.33 -51.6464 799.474 39.6547C825.226 126.104 811.77 217.625 803.418 306.942C794.37 403.315 790.194 502.776 821.05 596.062C850.05 683.834 926.146 764.991 1024.05 772.93C1108.5 779.766 1186.22 732.572 1255.12 685.819C1336.79 630.244 1417.75 573.347 1499.42 517.772C1560.67 476.312 1638.39 434.41 1707.52 463.08C1773.18 490.426 1793.59 565.849 1807.28 631.347C1827.7 730.367 1853.45 830.269 1909.13 916.939C1965.04 1004.05 2054.59 1076.16 2161.78 1095.79C2268.96 1115.42 2391.23 1072.64 2441.57 983.319M-36.8864 -287.839C-28.5343 -213.74 19.9537 -147.58 85.1457 -111.633C150.338 -75.4653 232.466 -70.1725 326.426 -94.8723C412.962 -117.587 505.298 -166.546 600.65 -156.622C702.962 -146.036 785.09 -66.2029 814.322 25.5392C841.234 109.783 828.474 199.982 822.21 287.533C815.25 385.892 814.09 487.117 845.41 582.608C874.178 669.719 947.722 751.096 1044.47 760.358C1127.99 768.518 1205.94 722.647 1274.61 676.555C1355.58 622.083 1434.92 565.627 1515.66 510.934C1576.91 469.694 1654.86 428.896 1723.99 457.565C1789.88 484.911 1811.23 560.334 1825.38 626.053C1845.79 723.529 1870.62 822.108 1925.14 907.454C1980.12 993.462 2068.98 1064.47 2174.77 1083.66C2280.56 1102.85 2401.2 1061.17 2452.01 973.835M-43.6133 -237.114C-25.0533 -167.205 31.0906 -110.969 97.4426 -85.3866C163.563 -59.8047 240.355 -65.0975 333.851 -95.9722C418.299 -123.759 511.563 -174.262 608.771 -166.323C712.243 -157.942 798.083 -80.3143 829.403 11.8688C857.243 94.128 845.411 182.562 841.003 268.791C835.899 369.134 837.987 472.123 870.003 569.82C898.539 656.269 969.763 737.646 1065.35 748.452C1147.94 757.935 1226.12 713.608 1294.56 668.178C1374.6 614.808 1452.55 558.572 1532.36 504.983C1593.84 463.963 1671.8 424.267 1740.93 452.937C1807.05 480.503 1829.55 555.485 1843.71 621.425C1864.35 717.357 1888.02 814.612 1941.61 898.636C1995.9 983.541 2084.06 1053.45 2188.23 1072.2C2292.4 1090.94 2411.41 1050.36 2462.92 965.016M-50.5733 -186.392C-21.8053 -120.453 41.7627 -74.3613 109.507 -59.1444C176.323 -44.1481 248.011 -59.806 341.275 -97.0762C423.867 -129.936 518.059 -182.202 616.659 -176.248C721.291 -169.852 810.843 -94.6504 844.251 -2.24665C873.019 78.0277 856.547 164.918 859.563 249.383C863.275 351.71 861.651 456.684 894.363 556.366C922.667 642.153 991.571 723.751 1085.76 735.88C1167.43 746.466 1245.84 703.682 1314.05 658.914C1393.16 606.647 1469.49 550.632 1548.6 498.145C1610.08 457.346 1688.5 418.753 1757.63 447.422C1824.22 474.989 1847.65 549.97 1862.03 616.13C1882.68 710.519 1905.42 806.451 1958.08 889.151C2011.44 972.954 2098.91 1041.54 2201.91 1060.29C2304.92 1078.81 2421.85 1039.11 2474.05 955.753M-57.3024 -135.672C-18.3264 -73.9226 52.6656 -37.5345 121.57 -33.1238C189.082 -28.7131 255.666 -54.7361 348.466 -98.1813C428.97 -135.893 524.09 -190.144 624.314 -186.174C730.106 -181.984 823.37 -108.987 858.866 -16.1427C888.562 61.9263 872.554 147.494 878.122 230.194C885.082 334.286 885.314 441.245 918.722 543.131C946.562 628.258 1013.15 710.076 1106.41 723.528C1187.38 735.437 1265.79 693.977 1334 649.87C1412.19 598.706 1487.12 542.911 1565.31 491.747C1627.02 451.169 1705.43 413.678 1774.57 442.127C1841.39 469.694 1865.75 544.455 1880.59 611.056C1901.24 703.901 1922.82 798.51 1974.79 880.107C2027.45 963.028 2113.99 1030.29 2215.6 1048.6C2317.22 1066.9 2432.52 1028.09 2485.19 946.929M-64.2623 -85.1705C-15.3103 -27.6111 63.3377 -0.926517 133.634 -7.10147C201.842 -13.0559 263.322 -49.4439 355.89 -99.5051C434.538 -142.068 530.586 -198.084 632.434 -196.099C739.386 -194.114 836.362 -123.543 873.946 -30.037C904.57 46.0472 889.258 130.291 896.914 211.007C906.89 317.083 909.442 425.807 943.082 529.899C970.69 614.363 1034.95 696.181 1127.06 711.177C1207.1 724.409 1285.98 684.493 1353.72 640.827C1430.98 590.766 1504.52 535.412 1581.78 485.13C1643.49 444.772 1722.14 408.384 1791.27 436.833C1858.32 464.4 1883.84 539.161 1898.69 605.762C1919.34 697.063 1939.99 790.129 1991.03 870.624C2042.76 952.442 2128.6 1018.6 2229.06 1036.46C2329.51 1054.33 2442.73 1016.62 2496.09 937.445M-70.9904 -34.4455C-11.8303 18.9237 74.2417 35.9048 145.93 19.1442C214.834 3.04522 271.21 -43.7079 363.546 -100.606C440.338 -147.8 537.082 -205.8 640.554 -206.021C748.666 -206.021 849.354 -137.876 889.258 -44.149C920.81 29.9504 906.658 112.651 915.938 191.602C928.698 299.443 933.57 410.371 967.906 516.448C995.282 600.251 1056.99 682.29 1147.94 698.609C1227.05 712.944 1306.16 674.792 1373.67 631.567C1450.23 582.608 1522.15 527.475 1598.48 478.296C1660.43 438.379 1739.31 402.873 1808.21 431.322C1875.72 459.109 1901.94 533.429 1917.25 600.472C1937.9 690.229 1957.62 781.971 2007.5 861.143C2058.54 941.858 2143.45 1006.92 2242.51 1024.34C2341.58 1041.76 2453.17 1005.15 2507.23 927.964M-77.9503 16.2767C-8.58227 65.4557 84.6818 72.9539 157.994 45.3872C227.594 19.1436 278.866 -37.9746 370.738 -101.709C445.442 -153.534 543.346 -213.74 648.21 -215.725C757.482 -217.93 861.65 -151.991 903.874 -57.8227C936.122 14.0713 930.322 95.0073 934.266 172.856C940.066 283.564 957.002 395.374 992.034 503.657C1019.18 586.798 1078.57 669.057 1168.35 686.7C1246.54 702.358 1325.88 665.528 1393.16 622.965C1468.79 575.11 1539.32 520.417 1614.72 472.12C1676.67 432.424 1755.78 398.021 1824.91 426.249C1892.66 454.037 1919.8 528.356 1935.58 595.399C1956.23 683.612 1975.02 774.031 2023.97 851.88C2074.08 931.713 2158.3 995.227 2256.2 1012.43C2353.87 1029.63 2463.61 993.903 2518.36 918.701M-84.6783 67.0016C-5.33433 112.211 95.8177 110.226 170.058 71.6328C240.354 35.2447 286.754 -32.2387 378.162 -102.809C451.242 -159.266 549.61 -221.457 656.098 -225.647C766.53 -229.837 874.41 -166.323 918.722 -71.9347C951.666 -2.0255 947.49 77.3667 953.058 153.451C961.41 266.144 980.898 379.719 1016.39 490.206C1043.31 572.686 1100.15 654.945 1188.77 674.131C1266.03 691.112 1345.6 655.607 1412.65 613.705C1487.35 566.952 1556.49 512.48 1630.96 465.286C1693.14 425.81 1772.25 392.51 1841.39 420.738C1909.36 448.525 1937.67 522.625 1953.44 590.108C1973.86 676.778 1991.72 765.873 2039.98 842.399C2089.39 921.129 2172.68 983.54 2269.19 1000.3C2365.71 1017.06 2473.59 982.438 2528.8 909.22M-91.6383 117.724C-2.08626 158.743 106.49 147.276 182.122 97.6556C253.114 51.123 294.642 -26.5051 385.354 -104.133C456.578 -165 555.874 -229.617 663.986 -235.792C775.81 -242.187 886.706 -180.879 933.57 -86.0492C967.21 -18.1247 964.658 59.7238 971.618 134.044C982.29 248.942 1004.56 364.281 1040.75 476.753C1067.2 558.571 1121.95 641.051 1209.42 661.561C1285.75 679.644 1365.55 645.903 1432.37 604.443C1506.15 558.792 1574.12 504.761 1647.43 458.67C1709.84 419.414 1789.19 387.217 1858.09 415.445C1926.3 443.232 1955.53 517.332 1971.77 584.815C1992.19 669.941 2009.12 757.714 2056.45 833.136C2104.94 910.764 2187.53 972.072 2282.65 988.392C2377.77 1004.71 2483.79 971.19 2539.71 899.958M-98.3663 168.223C1.3937 205.053 117.626 184.102 194.418 123.676C266.338 66.9983 302.994 -20.7742 393.01 -105.459C462.61 -170.958 562.37 -237.559 672.106 -245.719C785.09 -254.099 899.466 -195.216 948.882 -100.166C983.218 -34.2267 982.29 41.8574 990.642 114.634C1004.1 231.517 1028.69 348.62 1065.58 463.298C1091.79 544.454 1143.99 627.155 1230.3 648.987C1305.7 668.394 1385.74 635.976 1452.32 595.177C1525.17 550.409 1591.75 497.039 1664.14 451.83C1726.55 413.016 1806.12 381.7 1875.03 409.929C1943.7 437.936 1973.63 511.815 1990.33 579.519C2010.75 663.101 2026.75 749.551 2072.92 823.65C2120.71 900.396 2202.38 960.381 2296.34 976.26C2390.07 992.359 2494.23 959.72 2550.84 890.472M-105.326 218.949C4.40978 251.588 128.53 221.375 206.482 149.922C279.33 83.1003 311.114 -14.8167 400.202 -106.559C468.178 -176.468 568.634 -245.275 679.762 -255.64C793.906 -266.225 911.762 -209.548 963.498 -114.057C998.298 -49.8816 999.458 24.4383 1009.2 95.6707C1025.21 214.539 1052.35 333.406 1089.71 450.289C1115.69 530.784 1165.57 613.484 1250.71 636.861C1325.19 657.591 1405.69 626.496 1471.81 586.359C1543.73 542.693 1608.92 489.544 1680.38 445.437C1743.02 406.844 1822.59 376.631 1891.73 404.639C1960.63 432.646 1991.72 506.305 2008.43 574.45C2028.84 656.488 2043.92 741.394 2089.16 814.391C2136.26 890.034 2216.99 948.696 2309.56 964.574C2402.13 980.232 2504.44 948.696 2561.51 881.433M-112.286 269.673C7.65786 298.342 139.434 258.426 218.314 176.166C292.09 99.2001 319.002 -8.86153 407.394 -107.661C473.746 -181.981 574.666 -253.213 687.65 -265.342C802.954 -277.913 924.058 -223.441 978.346 -127.95C1013.84 -65.7592 1016.86 7.01693 1027.76 76.4851C1046.79 197.558 1076.02 317.97 1114.07 437.058C1139.82 517.112 1187.15 599.812 1271.36 624.512C1344.91 646.345 1425.64 617.014 1491.53 577.318C1562.52 534.755 1626.32 482.047 1696.85 438.822C1759.72 400.449 1839.53 371.339 1908.43 399.347C1977.57 427.355 2009.59 501.013 2026.75 569.158C2046.94 649.653 2061.09 733.235 2105.63 804.908C2151.8 879.449 2232.07 937.008 2323.25 952.446C2414.43 967.883 2514.88 937.229 2572.65 871.951M-119.013 320.396C11.1389 344.875 150.571 295.476 230.611 202.41C305.315 115.299 327.587 -2.90677 414.819 -108.763C479.779 -187.494 581.163 -260.931 695.539 -275.266C812.003 -289.821 936.123 -237.555 993.195 -141.843C1029.15 -81.6374 1034.26 -10.6254 1046.32 57.299C1068.13 180.357 1099.68 302.753 1138.43 423.826C1163.71 503.218 1208.95 586.139 1291.78 612.162C1364.39 635.318 1445.36 607.31 1511.25 568.276C1581.31 526.816 1643.72 474.328 1713.32 432.207C1776.2 394.054 1856.23 366.046 1925.14 394.054C1994.74 422.062 2027.45 495.5 2045.08 564.086C2065.27 643.037 2078.49 725.296 2122.11 795.646C2167.58 869.305 2246.92 925.541 2336.71 940.537C2426.49 955.533 2525.32 925.982 2583.79 862.689M-125.974 371.116C14.3859 391.405 161.474 332.523 242.674 228.431C318.538 131.175 335.938 2.82458 422.242 -110.089C485.81 -193.23 587.658 -268.873 703.426 -285.193C821.05 -301.953 948.418 -251.672 1008.27 -155.96C1044.7 -97.5184 1052.12 -28.2707 1065.11 37.8894C1089.94 162.932 1123.81 287.093 1162.79 410.592C1187.84 489.322 1230.76 572.243 1312.43 599.81C1384.11 624.289 1465.31 597.605 1530.97 559.232C1600.11 518.874 1661.12 466.828 1729.79 425.809C1792.9 388.097 1872.94 360.972 1941.84 388.759C2011.67 416.987 2045.31 490.204 2063.41 558.79C2083.59 636.198 2095.89 717.134 2138.35 786.161C2182.89 858.717 2261.54 913.85 2349.93 928.405C2438.55 942.961 2535.3 914.512 2594.46 853.203M-132.702 421.839C17.6338 437.938 172.842 369.572 254.738 254.674C331.53 147.274 344.29 8.99931 429.434 -111.192C491.61 -198.744 593.69 -276.592 711.082 -295.117C829.866 -313.862 960.25 -265.786 1022.89 -169.854C1059.78 -113.397 1069.29 -45.9137 1083.67 18.7028C1111.75 145.73 1147.47 271.655 1187.15 397.36C1211.97 475.429 1252.34 558.57 1332.84 587.46C1403.6 613.042 1485.03 587.901 1550.46 550.189C1618.67 510.714 1678.29 459.33 1746.03 419.192C1809.37 381.702 1889.64 355.679 1958.55 383.466C2028.61 411.694 2063.41 484.691 2081.51 553.718C2101.46 629.582 2113.06 709.194 2154.59 777.119C2198.43 848.572 2276.15 902.382 2363.39 916.717C2450.62 931.052 2545.74 903.485 2605.36 844.161M-139.662 472.343C20.8819 484.252 183.746 406.404 266.802 280.699C344.522 163.155 352.874 14.7355 436.858 -112.513C497.642 -204.475 600.186 -284.529 719.202 -305.259C839.378 -325.769 972.546 -280.118 1037.97 -184.186C1075.32 -129.494 1087.15 -63.7746 1102.47 -0.701903C1133.79 128.09 1171.37 256.22 1211.74 383.909C1236.33 461.317 1274.38 544.678 1353.72 574.892C1423.79 601.797 1505.22 577.979 1570.41 540.929C1637.69 502.557 1696.15 451.613 1762.74 412.358C1826.31 375.308 1906.58 350.388 1975.48 377.955C2046.01 406.183 2081.51 479.18 2100.07 548.207C2120.02 622.527 2130.69 700.816 2171.29 767.418C2214.21 837.988 2291.23 890.476 2377.07 904.369C2462.91 918.263 2556.18 891.799 2616.5 834.68M-146.39 523.065C24.3619 531.004 195.114 443.673 279.098 306.942C357.978 179.252 361.69 20.6886 444.282 -113.617C503.674 -209.99 606.45 -292.249 727.09 -314.964C848.426 -337.679 984.61 -293.793 1052.82 -197.861C1090.4 -144.932 1104.79 -81.1981 1121.03 -19.6691C1155.83 111.107 1195.03 241.002 1235.87 370.896C1260.23 447.642 1295.72 531.004 1374.14 562.761C1443.27 590.769 1524.94 568.715 1589.9 532.107C1656.25 494.837 1713.32 444.334 1778.98 405.961C1842.55 369.132 1923.05 345.314 1991.95 372.881C2062.71 401.11 2098.91 474.106 2118.16 543.354C2137.88 616.13 2147.63 692.876 2187.53 758.375C2229.75 827.843 2305.85 879.227 2390.53 892.68C2475.21 906.353 2566.62 880.771 2627.4 825.637M-153.35 573.79C27.378 577.539 206.018 480.504 291.162 332.967C370.97 195.134 370.274 26.4252 451.706 -114.937C509.938 -215.942 612.946 -300.185 734.978 -325.106C857.474 -349.806 996.442 -307.904 1067.67 -212.192C1105.71 -161.029 1122.42 -99.2792 1139.82 -39.2939C1178.33 93.2469 1218.93 225.126 1260.46 357.226C1284.35 433.31 1317.76 516.893 1394.79 549.973C1462.99 579.304 1544.89 558.573 1609.62 522.847C1675.04 486.459 1730.72 436.398 1795.45 399.127C1859.25 362.739 1939.99 339.804 2008.66 367.15C2079.65 395.599 2117 468.155 2136.26 537.843C2155.98 609.076 2164.79 684.498 2203.54 748.674C2244.83 817.039 2320.23 867.1 2403.52 880.333C2486.81 893.565 2576.36 869.085 2637.84 815.937M-160.078 624.511C30.8579 624.069 217.154 517.552 303.226 359.208C383.962 211.01 378.858 32.377 458.898 -116.042C515.97 -221.457 618.978 -308.127 742.866 -334.812C866.522 -361.717 1008.27 -321.58 1082.75 -225.868C1121.26 -176.469 1140.28 -116.704 1158.61 -58.2624C1200.83 75.8222 1242.83 209.907 1285.05 344.212C1308.71 419.635 1339.57 503.437 1415.67 537.841C1482.95 568.495 1565.07 549.088 1629.57 514.023C1694.07 478.738 1748.35 429.118 1812.39 392.95C1876.42 356.782 1957.15 334.95 2026.06 362.296C2097.28 390.745 2135.56 463.3 2155.28 532.989C2175 602.678 2182.89 676.777 2220.71 739.629C2261.31 807.113 2335.78 855.85 2417.91 868.862C2499.8 881.653 2587.5 858.276 2649.67 807.112" stroke="url(#paint0_linear_2124_668)" stroke-opacity="0.5" stroke-miterlimit="10"/>
</g>
<defs>
<linearGradient id="paint0_linear_2124_668" x1="-160.078" y1="899.737" x2="2649.67" y2="899.737" gradientUnits="userSpaceOnUse">
<stop stop-color="white" stop-opacity="0"/>
<stop offset="1" stop-color="white"/>
</linearGradient>
</defs>
</svg>
