<svg width="1770" height="984" viewBox="0 0 1770 984" fill="none" xmlns="http://www.w3.org/2000/svg">
<path d="M1361.34 684.553C1364.43 692.682 1362.51 702.348 1356.25 712.932C1349.99 723.511 1339.43 734.931 1325.36 746.502C1297.23 769.641 1255.19 793.311 1205.9 812.011C1156.61 830.71 1109.44 840.883 1073.04 842.226C1054.84 842.897 1039.36 841.359 1027.66 837.594C1015.95 833.828 1008.11 827.862 1005.03 819.733C1001.94 811.605 1003.85 801.939 1010.12 791.355C1016.38 780.776 1026.94 769.356 1041.01 757.785C1069.14 734.646 1111.18 710.975 1160.47 692.276C1209.76 673.576 1256.92 663.403 1293.32 662.061C1311.53 661.39 1327.01 662.928 1338.71 666.692C1350.42 670.459 1358.26 676.425 1361.34 684.553ZM1206.25 812.946C1255.61 794.218 1297.76 770.499 1325.99 747.274C1340.11 735.663 1350.77 724.158 1357.11 713.441C1363.45 702.73 1365.51 692.731 1362.28 684.199C1359.04 675.666 1350.86 669.552 1339.02 665.74C1327.16 661.927 1311.55 660.388 1293.29 661.062C1256.75 662.409 1209.48 672.613 1160.12 691.341C1110.75 710.068 1068.61 733.788 1040.37 757.013C1026.26 768.623 1015.6 780.129 1009.26 790.845C1002.92 801.557 1000.85 811.556 1004.09 820.088C1007.33 828.621 1015.5 834.735 1027.35 838.546C1039.21 842.36 1054.82 843.899 1073.08 843.225C1109.62 841.878 1156.89 831.673 1206.25 812.946ZM1478.72 640.02C1483.89 653.623 1480.67 669.751 1470.26 687.332C1459.86 704.907 1442.32 723.86 1419 743.048C1372.35 781.421 1302.64 820.663 1220.94 851.66C1139.24 882.656 1061.04 899.525 1000.68 901.751C970.494 902.864 944.796 900.315 925.356 894.061C905.909 887.804 892.804 877.869 887.643 864.266C882.483 850.663 885.7 834.536 896.103 816.955C906.503 799.379 924.043 780.427 947.37 761.239C994.021 722.866 1063.73 683.624 1145.43 652.627C1227.13 621.63 1305.33 604.762 1365.69 602.536C1395.87 601.422 1421.57 603.971 1441.01 610.226C1460.46 616.483 1473.56 626.418 1478.72 640.02ZM1221.29 852.595C1303.07 821.57 1372.88 782.279 1419.63 743.82C1443.01 724.593 1460.64 705.555 1471.13 687.841C1481.6 670.133 1484.97 653.673 1479.66 639.666C1474.35 625.659 1460.91 615.576 1441.32 609.274C1421.73 602.97 1395.9 600.421 1365.65 601.536C1305.15 603.768 1226.85 620.667 1145.07 651.692C1063.3 682.717 993.49 722.008 946.735 760.466C923.36 779.694 905.724 798.732 895.243 816.446C884.764 834.154 881.395 850.614 886.708 864.621C892.022 878.628 905.462 888.711 925.049 895.013C944.643 901.316 970.468 903.866 1000.72 902.75C1061.21 900.519 1139.52 883.619 1221.29 852.595ZM1636.94 579.998C1644.9 600.979 1639.92 625.815 1623.93 652.827C1607.95 679.834 1581.01 708.939 1545.21 738.393C1473.59 797.299 1366.6 857.527 1241.21 905.099C1115.82 952.671 995.805 978.563 903.142 981.981C856.808 983.69 817.341 979.778 787.469 970.167C757.591 960.555 737.392 945.27 729.432 924.289C721.472 903.307 726.45 878.471 742.433 851.46C758.414 824.453 785.354 795.348 821.162 765.894C892.774 706.988 999.763 646.759 1125.16 599.188C1250.55 551.616 1370.56 525.723 1463.23 522.306C1509.56 520.597 1549.03 524.509 1578.9 534.119C1608.78 543.732 1628.98 559.017 1636.94 579.998ZM1241.57 906.034C1367.03 858.434 1474.12 798.157 1545.84 739.165C1581.7 709.671 1608.73 680.481 1624.79 653.336C1640.85 626.198 1645.98 601.029 1637.87 579.643C1629.76 558.258 1609.22 542.825 1579.2 533.167C1549.18 523.508 1509.59 519.595 1463.19 521.306C1370.39 524.729 1250.27 550.653 1124.8 598.253C999.335 645.852 892.243 706.13 820.527 765.121C784.671 794.615 757.635 823.806 741.573 850.95C725.514 878.089 720.384 903.258 728.497 924.643C736.611 946.029 757.144 961.461 787.163 971.119C817.188 980.779 856.782 984.691 903.179 982.98C995.977 979.558 1116.1 953.634 1241.57 906.034ZM1853.84 497.709C1865.64 528.806 1858.24 565.582 1834.61 605.522C1810.98 645.458 1771.15 688.482 1718.23 732.011C1612.4 819.066 1454.3 908.068 1269.01 978.363C1083.72 1048.66 906.368 1086.92 769.423 1091.97C700.948 1094.5 642.604 1088.72 598.431 1074.51C554.252 1060.29 524.328 1037.67 512.53 1006.58C500.732 975.481 508.123 938.705 531.757 898.764C555.388 858.829 595.216 815.804 648.135 772.275C753.969 685.22 912.072 596.219 1097.36 525.924C1282.65 455.629 1460 417.364 1596.94 412.313C1665.42 409.788 1723.76 415.568 1767.94 429.779C1812.12 443.993 1842.04 466.612 1853.84 497.709ZM1269.36 979.298C1454.72 908.975 1612.93 819.925 1718.87 732.784C1771.83 689.215 1811.76 646.105 1835.47 606.032C1859.18 565.964 1866.72 528.855 1854.77 497.354C1842.82 465.853 1812.56 443.087 1768.24 428.827C1723.92 414.567 1665.45 408.786 1596.91 411.314C1459.83 416.37 1282.37 454.666 1097.01 524.989C911.644 595.312 753.438 684.362 647.5 771.503C594.533 815.072 554.609 858.181 530.897 898.255C507.187 938.323 499.644 975.432 511.595 1006.93C523.546 1038.43 553.805 1061.2 598.125 1075.46C642.451 1089.72 700.923 1095.5 769.46 1092.97C906.54 1087.92 1084 1049.62 1269.36 979.298ZM2231.5 354.429C2249.98 403.139 2238.39 460.704 2201.43 523.157C2164.48 585.604 2102.22 652.864 2019.5 720.9C1854.08 856.968 1606.98 996.068 1317.4 1105.93C1027.83 1215.79 750.641 1275.6 536.594 1283.49C429.568 1287.44 338.357 1278.4 269.283 1256.18C200.202 1233.96 153.344 1198.57 134.865 1149.86C116.385 1101.15 127.978 1043.58 164.933 981.13C201.885 918.682 264.152 851.423 346.864 783.387C512.284 647.319 759.386 508.219 1048.96 398.358C1338.54 288.498 1615.73 228.692 1829.77 220.797C1936.8 216.85 2028.01 225.882 2097.09 248.105C2166.17 270.33 2213.02 305.719 2231.5 354.429Z" stroke="white" stroke-opacity="0.2"/>
<path d="M1472.52 220.371C1472.76 219.328 1474.24 219.328 1474.48 220.371L1482.46 256.143C1482.59 256.714 1483.18 257.054 1483.74 256.879L1518.97 245.855C1519.99 245.535 1520.73 246.83 1519.94 247.55L1492.72 272.26C1492.28 272.656 1492.28 273.344 1492.72 273.74L1519.94 298.45C1520.73 299.17 1519.99 300.465 1518.97 300.145L1483.74 289.121C1483.18 288.946 1482.59 289.286 1482.46 289.857L1474.48 325.629C1474.24 326.672 1472.76 326.672 1472.52 325.629L1464.54 289.857C1464.41 289.286 1463.82 288.946 1463.26 289.121L1428.03 300.145C1427.01 300.465 1426.27 299.17 1427.06 298.45L1454.28 273.74C1454.72 273.344 1454.72 272.656 1454.28 272.26L1427.06 247.55C1426.27 246.83 1427.01 245.535 1428.03 245.855L1463.26 256.879C1463.82 257.054 1464.41 256.714 1464.54 256.143L1472.52 220.371Z" fill="#062756"/>
<path d="M798.535 752.534C798.803 751.552 800.197 751.552 800.465 752.534L807.091 776.808C807.185 777.152 807.455 777.42 807.799 777.511L832.361 784.034C833.352 784.297 833.352 785.703 832.361 785.966L807.799 792.489C807.455 792.58 807.185 792.848 807.091 793.192L800.465 817.466C800.197 818.448 798.803 818.448 798.535 817.466L791.909 793.192C791.815 792.848 791.545 792.58 791.201 792.489L766.639 785.966C765.648 785.703 765.648 784.297 766.639 784.034L791.201 777.511C791.545 777.42 791.815 777.152 791.909 776.808L798.535 752.534Z" fill="#7EACFF"/>
</svg>
