<svg width="320" height="86" viewBox="0 0 320 86" fill="none" xmlns="http://www.w3.org/2000/svg">
<path d="M99.377 70.3655V56.797H109.617V70.3655H108.28V57.9819H100.714V70.3655H99.377ZM117.829 70.5567C117.001 70.5567 116.256 70.3401 115.594 69.9069C114.945 69.4737 114.429 68.9386 114.047 68.3016V74.4361H112.748V60.4089H113.913V62.3391C114.308 61.7148 114.836 61.2115 115.498 60.8293C116.16 60.4344 116.867 60.2369 117.62 60.2369C118.307 60.2369 118.937 60.3834 119.51 60.6765C120.083 60.9567 120.581 61.339 121 61.8231C121.421 62.3072 121.746 62.8614 121.975 63.4857C122.217 64.0973 122.337 64.7343 122.337 65.3968C122.337 66.3268 122.146 67.1868 121.764 67.9767C121.395 68.7539 120.873 69.3782 120.199 69.8496C119.523 70.321 118.734 70.5567 117.829 70.5567ZM117.466 69.41C118.014 69.41 118.504 69.3017 118.937 69.0851C119.371 68.8558 119.74 68.55 120.045 68.1678C120.363 67.7856 120.606 67.3588 120.772 66.8874C120.936 66.4033 121.02 65.9064 121.02 65.3968C121.02 64.8617 120.924 64.3521 120.733 63.8679C120.554 63.3838 120.294 62.957 119.949 62.5875C119.606 62.218 119.212 61.925 118.766 61.7084C118.32 61.4918 117.836 61.3835 117.313 61.3835C116.983 61.3835 116.638 61.4473 116.282 61.5747C115.925 61.7021 115.582 61.8868 115.25 62.1289C114.932 62.3582 114.664 62.6194 114.447 62.9124C114.231 63.2054 114.097 63.5176 114.047 63.8488V66.9065C114.25 67.3779 114.524 67.8047 114.868 68.1869C115.212 68.5564 115.607 68.8558 116.053 69.0851C116.51 69.3017 116.983 69.41 117.466 69.41ZM123.736 67.499C123.736 66.8747 123.915 66.3396 124.272 65.8937C124.627 65.435 125.118 65.0846 125.742 64.8426C126.378 64.5878 127.111 64.4604 127.939 64.4604C128.423 64.4604 128.926 64.4986 129.448 64.575C129.971 64.6515 130.435 64.7661 130.843 64.919V64.0781C130.843 63.2373 130.595 62.5684 130.099 62.0715C129.601 61.5747 128.914 61.3262 128.034 61.3262C127.499 61.3262 126.971 61.4281 126.449 61.632C125.939 61.8231 125.405 62.1098 124.845 62.492L124.347 61.5747C124.997 61.1287 125.634 60.7975 126.258 60.5809C126.883 60.3516 127.519 60.2369 128.168 60.2369C129.391 60.2369 130.359 60.5873 131.072 61.288C131.786 61.9887 132.142 62.957 132.142 64.1928V68.7985C132.142 68.9768 132.18 69.1106 132.257 69.1998C132.333 69.2762 132.455 69.3208 132.619 69.3336V70.3655C132.48 70.3783 132.359 70.391 132.257 70.4038C132.155 70.4165 132.078 70.4165 132.028 70.4038C131.709 70.391 131.468 70.2891 131.302 70.098C131.136 69.9069 131.047 69.703 131.034 69.4865L131.015 68.7603C130.569 69.3336 129.99 69.7795 129.276 70.098C128.564 70.4038 127.838 70.5567 127.099 70.5567C126.462 70.5567 125.882 70.4229 125.36 70.1553C124.85 69.875 124.449 69.5056 124.156 69.0469C123.876 68.5755 123.736 68.0595 123.736 67.499ZM130.404 68.2634C130.544 68.085 130.652 67.913 130.729 67.7474C130.804 67.5818 130.843 67.4353 130.843 67.3078V65.8554C130.41 65.6898 129.958 65.5624 129.487 65.4732C129.028 65.384 128.564 65.3394 128.093 65.3394C127.163 65.3394 126.41 65.5242 125.837 65.8937C125.264 66.2631 124.977 66.7664 124.977 67.4034C124.977 67.7729 125.073 68.1232 125.264 68.4545C125.455 68.773 125.736 69.0405 126.105 69.2571C126.474 69.461 126.908 69.5629 127.404 69.5629C128.029 69.5629 128.607 69.4419 129.143 69.1998C129.69 68.9577 130.11 68.6456 130.404 68.2634ZM134.93 70.3655V60.4089H136.229V64.6706H137.719L141.062 60.4089H142.552L138.751 65.2439L143.03 70.3655H141.501L137.719 65.8745H136.229V70.3655H134.93ZM147.358 70.3655V61.5747H143.805V60.4089H152.211V61.5747H148.658V70.3655H147.358ZM153.959 70.3655V60.428H155.259V68.6074L161.314 60.4089H162.481V70.3655H161.182V62.32L155.221 70.3655H153.959ZM165.302 70.3655V60.4089H166.603V64.6706H168.092L171.436 60.4089H172.926L169.123 65.2439L173.403 70.3655H171.875L168.092 65.8745H166.603V70.3655H165.302ZM176.337 74.5317C176.12 74.5317 175.897 74.4934 175.668 74.417C175.452 74.3533 175.229 74.2577 174.999 74.1303L175.477 73.213C175.616 73.2895 175.744 73.3532 175.859 73.4041C175.986 73.4551 176.12 73.4806 176.26 73.4806C176.591 73.4806 176.903 73.315 177.196 72.9837C177.489 72.6525 177.769 72.1683 178.036 71.5313L178.534 70.2891L174.101 60.4089H175.477L179.125 69.0278L182.488 60.4089H183.787L179.05 71.9326C178.795 72.5314 178.527 73.0219 178.247 73.4041C177.967 73.7863 177.667 74.0666 177.349 74.245C177.03 74.4361 176.693 74.5317 176.337 74.5317ZM185.582 70.3655V60.4089H186.92L190.875 67.2696L194.848 60.4089H196.128V70.3655H194.886V62.3582L191.295 68.5883H190.454L186.824 62.3582V70.3655H185.582Z" fill="#292929"/>
<path d="M100.39 44.752V17.6149H122.972V44.752H116.704V23.1188H106.656V44.752H100.39ZM140.485 45.1342C138.984 45.1342 137.671 44.8157 136.55 44.1787C135.429 43.5162 134.551 42.6243 133.914 41.5032V52.8931H127.801V24.6858H133.112V27.9346C133.851 26.788 134.781 25.8962 135.9 25.2591C137.021 24.6221 138.333 24.3036 139.837 24.3036C141.186 24.3036 142.422 24.5712 143.542 25.1063C144.688 25.6414 145.682 26.3803 146.523 27.3231C147.363 28.2659 148.013 29.3616 148.472 30.6101C148.93 31.8587 149.159 33.2092 149.159 34.6616C149.159 36.6491 148.791 38.4327 148.052 40.0126C147.313 41.5924 146.28 42.8409 144.956 43.7582C143.658 44.6756 142.168 45.1342 140.485 45.1342ZM138.422 39.9743C139.084 39.9743 139.684 39.8342 140.219 39.5539C140.779 39.2481 141.263 38.8532 141.67 38.369C142.077 37.8849 142.384 37.3243 142.587 36.6873C142.816 36.0248 142.932 35.3368 142.932 34.6234C142.932 33.8844 142.804 33.2092 142.55 32.5976C142.32 31.9861 141.989 31.451 141.556 30.9923C141.122 30.5082 140.613 30.1387 140.028 29.8839C139.441 29.6291 138.804 29.5017 138.117 29.5017C137.71 29.5017 137.289 29.5654 136.856 29.6928C136.448 29.8202 136.054 30.0113 135.672 30.2661C135.315 30.4955 134.984 30.7757 134.678 31.107C134.372 31.4382 134.117 31.8205 133.914 32.2536V36.3815C134.194 37.0695 134.563 37.6811 135.022 38.2162C135.481 38.7513 136.002 39.1844 136.589 39.5157C137.174 39.8214 137.786 39.9743 138.422 39.9743ZM161.793 45.1342C160.086 45.1342 158.558 44.8539 157.208 44.2933C155.883 43.7328 154.763 42.9683 153.845 42.0001C152.928 41.0318 152.228 39.9234 151.744 38.6748C151.286 37.4262 151.057 36.114 151.057 34.738C151.057 33.3366 151.286 32.0116 151.744 30.763C152.228 29.5144 152.928 28.406 153.845 27.4378C154.763 26.4695 155.883 25.7051 157.208 25.1445C158.558 24.5839 160.086 24.3036 161.793 24.3036C163.5 24.3036 165.016 24.5839 166.34 25.1445C167.664 25.7051 168.785 26.4695 169.702 27.4378C170.62 28.406 171.32 29.5144 171.803 30.763C172.288 32.0116 172.53 33.3366 172.53 34.738C172.53 36.114 172.288 37.4262 171.803 38.6748C171.32 39.9234 170.62 41.0318 169.702 42.0001C168.785 42.9683 167.664 43.7328 166.34 44.2933C165.016 44.8539 163.5 45.1342 161.793 45.1342ZM157.323 34.738C157.323 35.7827 157.514 36.7 157.896 37.49C158.303 38.2799 158.839 38.8914 159.501 39.3246C160.163 39.7577 160.927 39.9743 161.793 39.9743C162.633 39.9743 163.386 39.7577 164.048 39.3246C164.735 38.8659 165.271 38.2416 165.653 37.4517C166.035 36.6618 166.226 35.7573 166.226 34.738C166.226 33.6933 166.035 32.776 165.653 31.9861C165.271 31.1962 164.735 30.5846 164.048 30.1515C163.386 29.7183 162.633 29.5017 161.793 29.5017C160.927 29.5017 160.163 29.7183 159.501 30.1515C158.839 30.5846 158.303 31.1962 157.896 31.9861C157.514 32.776 157.323 33.6933 157.323 34.738ZM185.153 45.1342C183.445 45.1342 181.93 44.8667 180.605 44.3316C179.281 43.771 178.148 43.0193 177.204 42.0765C176.288 41.1337 175.587 40.0508 175.103 38.8277C174.619 37.5791 174.377 36.2796 174.377 34.9291C174.377 32.9926 174.798 31.2344 175.638 29.6546C176.504 28.0493 177.739 26.7625 179.344 25.7942C180.95 24.8005 182.885 24.3036 185.153 24.3036C187.419 24.3036 189.342 24.7878 190.921 25.756C192.526 26.7243 193.75 27.9983 194.589 29.5781C195.431 31.1325 195.851 32.827 195.851 34.6616C195.851 35.0183 195.825 35.375 195.774 35.7318C195.749 36.063 195.724 36.3561 195.697 36.6109H180.873C180.95 37.5027 181.191 38.2544 181.598 38.8659C182.032 39.4775 182.579 39.9488 183.242 40.2801C183.904 40.5859 184.605 40.7388 185.344 40.7388C186.26 40.7388 187.114 40.5222 187.903 40.089C188.719 39.6558 189.279 39.0698 189.584 38.3308L194.781 39.7832C194.271 40.8279 193.545 41.758 192.603 42.5734C191.685 43.3633 190.591 43.9876 189.317 44.4462C188.069 44.9049 186.681 45.1342 185.153 45.1342ZM180.72 32.8652H189.431C189.329 32.0243 189.088 31.2981 188.706 30.6866C188.323 30.0495 187.814 29.5654 187.177 29.2342C186.54 28.8774 185.84 28.6991 185.076 28.6991C184.286 28.6991 183.573 28.8774 182.936 29.2342C182.324 29.5654 181.828 30.0495 181.446 30.6866C181.064 31.2981 180.822 32.0243 180.72 32.8652ZM198.66 44.752V24.6858H204.735V31.8714H206.187L211.155 24.6858H217.726L210.848 34.3176L218.451 44.752H211.46L206.072 37.1842H204.735V44.752H198.66ZM226.003 44.752V30.0368H219.928V24.6858H238.191V30.0368H232.116V44.752H226.003ZM240.824 44.752V24.6858H246.937V31.9479H253.776V24.6858H259.89V44.752H253.776V36.9931H246.937V44.752H240.824ZM264.181 44.752V24.6858H270.295V30.6866H273.543C275.962 30.6866 277.822 31.3236 279.121 32.5976C280.447 33.8462 281.109 35.4897 281.109 37.5282C281.109 38.9551 280.829 40.2164 280.268 41.3121C279.733 42.4078 278.93 43.2614 277.861 43.8729C276.79 44.459 275.48 44.752 273.925 44.752H264.181ZM270.295 40.1272H272.932C273.492 40.1272 273.951 40.0253 274.307 39.8214C274.689 39.5921 274.97 39.2864 275.148 38.9041C275.326 38.4964 275.416 38.0505 275.416 37.5664C275.416 37.0823 275.326 36.6618 275.148 36.3051C274.97 35.9229 274.689 35.6171 274.307 35.3878C273.951 35.1585 273.479 35.0438 272.894 35.0438H270.295V40.1272ZM284.127 44.752V24.6858H290.24V44.752H284.127ZM294.518 44.752V24.6858H300.631V36.6109L308.387 24.6858H313.966V44.752H307.852V33.1709L300.135 44.752H294.518ZM304.261 23.0423C302.223 23.0423 300.593 22.5072 299.371 21.437C298.148 20.3413 297.536 18.9272 297.536 17.1945H301.127C301.127 17.9844 301.382 18.6469 301.891 19.182C302.427 19.6916 303.217 19.9464 304.261 19.9464C305.28 19.9464 306.031 19.7043 306.515 19.2202C306.999 18.7106 307.292 18.0353 307.395 17.1945H311.024C311.024 18.9272 310.4 20.3413 309.151 21.437C307.929 22.5072 306.299 23.0423 304.261 23.0423Z" fill="#292929"/>
<mask id="mask0_337_593" style="mask-type:alpha" maskUnits="userSpaceOnUse" x="6" y="6" width="78" height="74">
<path d="M6 6H83.9357V79.2574H6V6Z" fill="#C4C4C4"/>
</mask>
<g mask="url(#mask0_337_593)">
<path d="M67.3353 14.8561L67.2959 13.764C67.5729 13.5157 67.7936 13.31 67.9124 13.1912C69.6843 11.4187 70.4872 8.94217 70.0587 6.56489C70.0424 6.47411 69.9986 6.39104 69.9312 6.32362C69.8649 6.25726 69.7793 6.21201 69.69 6.19595C67.3135 5.76742 64.8371 6.5698 63.0651 8.34244C62.9464 8.46109 62.739 8.68046 62.4908 8.95743L61.3878 8.9066C60.9939 8.89134 60.4583 9.09015 60.179 9.36964L58.1317 11.4177C57.862 11.6875 57.9356 11.9668 58.0952 12.1265L58.0956 12.1269C58.1757 12.207 58.278 12.2713 58.4169 12.2997L60.2271 12.675C60.291 12.688 60.3567 12.6965 60.4263 12.6974L59.6286 15.9521C59.5742 16.1745 59.6179 16.3781 59.7493 16.5096C59.8809 16.6412 60.0835 16.6857 60.3059 16.6313L63.5583 15.8345C63.5592 15.9041 63.5652 15.9721 63.5783 16.0361L63.9489 17.8513C63.9773 17.9901 64.0258 18.0948 64.1059 18.1749C64.2655 18.3345 64.5407 18.3684 64.8106 18.0984L66.8578 16.0505C67.1372 15.7712 67.3505 15.2501 67.3353 14.8561ZM65.393 10.8644C64.933 10.4043 64.9346 9.6567 65.3966 9.19459C65.8585 8.73262 66.6058 8.73089 67.0658 9.19101C67.5256 9.65112 67.524 10.3987 67.0621 10.8607C66.6001 11.3228 65.8529 11.3244 65.393 10.8644Z" fill="#3467F4"/>
<path d="M69.3151 50.8304L30.0092 11.5117L15.0444 26.4814C7.64795 33.8802 7.64795 45.8761 15.0444 53.2749L40.9579 79.1968C45.0697 75.0836 45.0697 68.4148 40.9579 64.3017L25.58 48.9188C20.6491 43.9863 20.6491 35.989 25.58 31.0565L30.1186 26.5164L61.87 58.278L69.3151 50.8304Z" fill="url(#paint0_linear_337_593)"/>
<path fill-rule="evenodd" clip-rule="evenodd" d="M59.8977 19.0686L57.1605 16.3306L57.1599 16.3301L57.0703 16.4197C55.4267 18.0638 52.7619 18.0638 51.1182 16.4197L51.0287 16.3301L48.2914 19.0682C50.0699 20.8472 52.4616 21.639 54.7859 21.4435C54.5906 23.7686 55.3821 26.1609 57.1605 27.9399L77.8984 48.6845C78.7202 49.5067 78.7202 50.8395 77.8984 51.6617L61.2116 68.3539L30.1171 37.2495C28.6055 38.7616 28.6055 41.2133 30.1171 42.7256L61.2116 73.83L81.8848 53.1502C83.5284 51.506 83.5284 48.8402 81.8848 47.196L59.8977 25.2019L59.8081 25.1123C58.1645 23.4682 58.1645 20.8024 59.8081 19.1582L59.8977 19.0686Z" fill="url(#paint1_linear_337_593)"/>
</g>
<defs>
<linearGradient id="paint0_linear_337_593" x1="15.7758" y1="25.7497" x2="55.0945" y2="65.0556" gradientUnits="userSpaceOnUse">
<stop stop-color="#3364ED"/>
<stop offset="1" stop-color="#333D90"/>
</linearGradient>
<linearGradient id="paint1_linear_337_593" x1="54.0944" y1="13.2634" x2="27.3709" y2="39.9783" gradientUnits="userSpaceOnUse">
<stop stop-color="#FFA13D"/>
<stop offset="1" stop-color="#D44239"/>
</linearGradient>
</defs>
</svg>
