<svg width="588" height="552" viewBox="0 0 588 552" fill="none" xmlns="http://www.w3.org/2000/svg">
    <mask id="mask0_11_1211" style="mask-type:alpha" maskUnits="userSpaceOnUse" x="0" y="0" width="588"
          height="552">
        <path d="M0 0H587.441V552H0V0Z" fill="#C4C4C4"/>
    </mask>
    <g mask="url(#mask0_11_1211)">
        <path d="M462.308 66.7307L462.011 58.502C464.099 56.6312 465.763 55.0809 466.658 54.1858C480.014 40.8301 486.066 22.1688 482.836 4.25638C482.713 3.57192 482.383 2.94566 481.875 2.43795C481.375 1.93752 480.73 1.59671 480.057 1.47603C462.144 -1.75347 443.478 4.2935 430.122 17.6495C429.227 18.5443 427.664 20.1966 425.793 22.2837L417.479 21.9014C414.51 21.7864 410.473 23.2844 408.368 25.3899L392.936 40.8216C390.903 42.8546 391.458 44.9597 392.661 46.1626L392.664 46.1659C393.268 46.7696 394.039 47.2535 395.086 47.4677L408.73 50.2959C409.212 50.3944 409.707 50.4577 410.232 50.4649L404.219 74.9893C403.809 76.6653 404.138 78.199 405.129 79.1903C406.121 80.1818 407.648 80.5171 409.324 80.1065L433.839 74.1033C433.846 74.6281 433.891 75.1398 433.99 75.6221L436.783 89.2997C436.997 90.3464 437.363 91.1345 437.967 91.7383C439.17 92.9415 441.244 93.1956 443.278 91.1622L458.709 75.7306C460.815 73.626 462.423 69.7001 462.308 66.7307ZM447.668 36.6527C444.201 33.1862 444.213 27.5533 447.695 24.0714C451.177 20.5898 456.81 20.5772 460.277 24.0441C463.743 27.511 463.731 33.1435 460.249 36.6255C456.767 40.1074 451.135 40.1193 447.668 36.6527Z"
              fill="#3467F4"/>
        <path d="M477.234 337.8L180.965 41.5312L68.1676 154.329C12.4169 210.079 12.4168 300.469 68.1675 356.22L263.491 551.543C294.484 520.55 294.484 470.3 263.491 439.307L147.58 323.396C110.413 286.229 110.413 225.969 147.58 188.802L181.79 154.592L421.116 393.918L477.234 337.8Z"
              fill="url(#paint0_linear_11_1211)"/>
        <path fill-rule="evenodd" clip-rule="evenodd"
              d="M406.256 98.4732L385.625 77.8417C385.625 77.8419 385.624 77.8421 385.624 77.8423L385.62 77.8384L384.945 78.5134C372.556 90.9025 352.47 90.9025 340.081 78.5134L339.406 77.8384L318.774 98.47C332.179 111.875 350.207 117.841 367.726 116.368C366.254 133.888 372.22 151.914 385.625 165.319L541.937 321.631C548.131 327.826 548.131 337.869 541.937 344.064L416.16 469.841L181.785 235.467C170.391 246.861 170.391 265.335 181.785 276.73L416.16 511.104L571.984 355.28C584.373 342.891 584.373 322.804 571.984 310.415L406.256 144.688L405.581 144.013C393.192 131.624 393.192 111.537 405.581 99.1482L406.256 98.4732Z"
              fill="url(#paint1_linear_11_1211)"/>
    </g>
    <defs>
        <linearGradient id="paint0_linear_11_1211" x1="73.6808" y1="148.815" x2="369.95" y2="445.084"
                        gradientUnits="userSpaceOnUse">
            <stop stop-color="#3364ED"/>
            <stop offset="1" stop-color="#333D90"/>
        </linearGradient>
        <linearGradient id="paint1_linear_11_1211" x1="362.514" y1="54.7305" x2="161.15" y2="256.094"
                        gradientUnits="userSpaceOnUse">
            <stop stop-color="#FFA13D"/>
            <stop offset="1" stop-color="#D44239"/>
        </linearGradient>
    </defs>
</svg>
