<svg width="160" height="48" viewBox="0 0 160 48" fill="none" xmlns="http://www.w3.org/2000/svg">
<g clip-path="url(#clip0_2076_89)">
<mask id="mask0_2076_89" style="mask-type:alpha" maskUnits="userSpaceOnUse" x="0" y="0" width="49" height="48">
<path d="M0 0.774414H48.9855V47.2259H0V0.774414Z" fill="#C4C4C4"/>
</mask>
<g mask="url(#mask0_2076_89)">
<path d="M38.5519 6.38978L38.5272 5.69732C38.7013 5.53989 38.84 5.40943 38.9147 5.33411C40.0284 4.21021 40.5331 2.63984 40.2637 1.13249C40.2535 1.07489 40.2259 1.02219 40.1836 0.979465C40.1419 0.937353 40.0881 0.908673 40.032 0.898518C38.5383 0.626751 36.9817 1.13561 35.868 2.25954C35.7934 2.33483 35.663 2.47388 35.507 2.64951L34.8137 2.61734C34.5662 2.60766 34.2295 2.73372 34.054 2.9109L32.7671 4.2095C32.5976 4.38058 32.6439 4.55772 32.7442 4.65895L32.7445 4.65923C32.7948 4.71003 32.8591 4.75075 32.9464 4.76877L34.0842 5.00677C34.1244 5.01506 34.1656 5.02039 34.2094 5.02099L33.708 7.08475C33.6738 7.22579 33.7013 7.35485 33.7839 7.43827C33.8666 7.52171 33.9939 7.54992 34.1337 7.51537L36.178 7.01019C36.1785 7.05436 36.1823 7.09742 36.1905 7.138L36.4235 8.28899C36.4413 8.37707 36.4718 8.44339 36.5222 8.4942C36.6225 8.59545 36.7954 8.61683 36.9651 8.44572L38.2518 7.14713C38.4274 6.97003 38.5615 6.63966 38.5519 6.38978ZM37.3311 3.85868C37.042 3.56697 37.043 3.09295 37.3334 2.79995C37.6237 2.50697 38.0935 2.50591 38.3826 2.79765C38.6716 3.08939 38.6706 3.56337 38.3802 3.85639C38.0899 4.1494 37.6202 4.1504 37.3311 3.85868Z" fill="#1861CF"/>
<path d="M39.7962 29.2004L15.0909 4.26904L5.68495 13.7611C1.03601 18.4525 1.036 26.059 5.68494 30.7505L21.9726 47.1872C24.557 44.5791 24.557 40.3505 21.9726 37.7424L12.307 27.9883C9.20771 24.8607 9.20771 19.7897 12.307 16.6621L15.1597 13.7832L35.1166 33.9228L39.7962 29.2004Z" fill="url(#paint0_linear_2076_89)"/>
<path fill-rule="evenodd" clip-rule="evenodd" d="M33.8771 9.06115L32.1567 7.32498L32.1566 7.32504L32.1563 7.32471L32.1 7.38151C31.0669 8.42407 29.392 8.42407 28.3589 7.38151L28.3026 7.32471L26.5821 9.06088C27.6999 10.1889 29.2032 10.691 30.6641 10.567C30.5414 12.0414 31.0389 13.5583 32.1567 14.6863L45.1912 27.8402C45.7077 28.3615 45.7077 29.2066 45.1912 29.7279L34.7029 40.3122L15.1589 20.5893C14.2088 21.5482 14.2088 23.1028 15.1589 24.0617L34.7029 43.7845L47.6968 30.6718C48.7299 29.6292 48.7299 27.9389 47.6968 26.8963L33.8771 12.9502L33.8208 12.8934C32.7877 11.8508 32.7877 10.1605 33.8208 9.11795L33.8771 9.06115Z" fill="url(#paint1_linear_2076_89)"/>
</g>
</g>
<path d="M59.3545 20.4492V7.79717H69.6012V20.4492H67.4851V9.78283H61.4706V20.4492H59.3545Z" fill="black"/>
<path d="M76.3556 20.7128C75.4307 20.7128 74.6551 20.4931 74.0288 20.0538C73.4025 19.6145 72.9313 19.017 72.6152 18.2614C72.2991 17.5 72.141 16.6477 72.141 15.7047C72.141 14.7499 72.2991 13.8947 72.6152 13.1391C72.9313 12.3835 73.3937 11.789 74.0025 11.3555C74.6171 10.9162 75.3751 10.6966 76.2766 10.6966C77.1722 10.6966 77.9478 10.9162 78.6034 11.3555C79.2648 11.789 79.777 12.3835 80.1399 13.1391C80.5029 13.8889 80.6843 14.7441 80.6843 15.7047C80.6843 16.6536 80.5058 17.5058 80.1487 18.2614C79.7916 19.017 79.2882 19.6145 78.6385 20.0538C77.9887 20.4931 77.2278 20.7128 76.3556 20.7128ZM71.781 24.6665V10.9602H73.6512V17.62H73.9147V24.6665H71.781ZM76.0307 18.815C76.581 18.815 77.0346 18.6773 77.3917 18.402C77.7487 18.1267 78.0122 17.7548 78.1819 17.2862C78.3575 16.8117 78.4453 16.2846 78.4453 15.7047C78.4453 15.1306 78.3575 14.6093 78.1819 14.1407C78.0063 13.6663 77.7341 13.2914 77.3653 13.0161C76.9966 12.735 76.5283 12.5944 75.9605 12.5944C75.422 12.5944 74.9829 12.7262 74.6434 12.9898C74.3039 13.2475 74.0522 13.6106 73.8883 14.0792C73.7303 14.542 73.6512 15.0838 73.6512 15.7047C73.6512 16.3197 73.7303 16.8615 73.8883 17.3301C74.0522 17.7987 74.3068 18.1648 74.6522 18.4284C75.0034 18.6861 75.4629 18.815 76.0307 18.815Z" fill="black"/>
<path d="M86.5445 20.7128C85.5962 20.7128 84.768 20.499 84.0597 20.0714C83.3514 19.6438 82.8012 19.0551 82.409 18.3054C82.0226 17.5498 81.8295 16.6829 81.8295 15.7047C81.8295 14.7089 82.0285 13.8362 82.4265 13.0864C82.8246 12.3367 83.3777 11.7509 84.086 11.3292C84.7943 10.9075 85.6138 10.6966 86.5445 10.6966C87.4987 10.6966 88.3299 10.9104 89.0381 11.338C89.7464 11.7656 90.2967 12.3572 90.6889 13.1128C91.081 13.8625 91.2771 14.7265 91.2771 15.7047C91.2771 16.6887 91.0781 17.5585 90.6801 18.3141C90.2879 19.0639 89.7376 19.6526 89.0294 20.0802C88.3211 20.5019 87.4928 20.7128 86.5445 20.7128ZM86.5445 18.7271C87.3874 18.7271 88.0138 18.4459 88.4235 17.8836C88.8333 17.3213 89.0381 16.595 89.0381 15.7047C89.0381 14.7851 88.8303 14.0529 88.4147 13.5081C87.9991 12.9575 87.3757 12.6822 86.5445 12.6822C85.9767 12.6822 85.5084 12.8111 85.1397 13.0688C84.7767 13.3207 84.5075 13.6751 84.3319 14.132C84.1563 14.583 84.0685 15.1072 84.0685 15.7047C84.0685 16.6243 84.2763 17.3594 84.6919 17.91C85.1133 18.4547 85.7309 18.7271 86.5445 18.7271Z" fill="black"/>
<path d="M97.2594 20.7128C96.2994 20.7128 95.4565 20.5048 94.7307 20.0889C94.0048 19.6731 93.4371 19.0961 93.0273 18.3581C92.6234 17.62 92.4215 16.7707 92.4215 15.8101C92.4215 14.7733 92.6205 13.8742 93.0185 13.1128C93.4166 12.3454 93.9697 11.7509 94.678 11.3292C95.3863 10.9075 96.2058 10.6966 97.1365 10.6966C98.1199 10.6966 98.954 10.928 99.6389 11.3907C100.33 11.8476 100.842 12.4948 101.175 13.3324C101.509 14.17 101.635 15.157 101.553 16.2933H99.4545V15.5202C99.4487 14.4893 99.2672 13.7366 98.9101 13.2621C98.5531 12.7877 97.9911 12.5505 97.2243 12.5505C96.358 12.5505 95.7141 12.8199 95.2926 13.3588C94.8712 13.8918 94.6604 14.6738 94.6604 15.7047C94.6604 16.6653 94.8712 17.4092 95.2926 17.9363C95.7141 18.4635 96.3287 18.7271 97.1365 18.7271C97.6575 18.7271 98.1053 18.6129 98.4799 18.3844C98.8604 18.1501 99.1531 17.8133 99.3579 17.374L101.448 18.0066C101.085 18.8618 100.523 19.5266 99.7618 20.0011C99.0067 20.4755 98.1726 20.7128 97.2594 20.7128ZM93.9931 16.2933V14.6943H100.517V16.2933H93.9931Z" fill="black"/>
<path d="M103.231 20.4492L103.249 10.9602H105.391V15.5289L108.859 10.9602H111.502L107.823 15.7047L111.818 20.4492H109.017L105.391 15.8804V20.4492H103.231Z" fill="black"/>
<path d="M114.814 20.4492V12.8404H111.644V10.9602H120.1V12.8404H116.93V20.4492H114.814Z" fill="black"/>
<path d="M121.483 20.4492V10.9602H123.599V14.7031H127.857V10.9602H129.973V20.4492H127.857V16.6887H123.599V20.4492H121.483Z" fill="black"/>
<path d="M132.152 20.4492L132.143 10.9602H134.259V14.1232H135.322C135.585 14.1232 135.881 14.129 136.209 14.1407C136.542 14.1525 136.82 14.1788 137.043 14.2198C137.575 14.337 138.029 14.5244 138.404 14.7821C138.784 15.0399 139.074 15.3767 139.273 15.7925C139.472 16.2084 139.571 16.7092 139.571 17.295C139.571 18.1326 139.355 18.8032 138.922 19.307C138.489 19.8049 137.883 20.1446 137.104 20.3262C136.876 20.3789 136.592 20.414 136.252 20.4316C135.913 20.4433 135.611 20.4492 135.348 20.4492H132.152ZM134.259 18.7886H135.532C135.661 18.7886 135.805 18.7827 135.963 18.771C136.121 18.7593 136.27 18.733 136.411 18.6919C136.674 18.6217 136.908 18.4635 137.113 18.2175C137.318 17.9656 137.42 17.6581 137.42 17.295C137.42 16.9142 137.318 16.6009 137.113 16.3548C136.908 16.1088 136.656 15.9478 136.358 15.8716C136.217 15.8365 136.074 15.813 135.928 15.8013C135.787 15.7896 135.655 15.7837 135.532 15.7837H134.259V18.7886ZM140.564 20.4492V10.9602H142.68V20.4492H140.564Z" fill="black"/>
<path d="M149.261 9.88827C148.775 9.88827 148.33 9.76819 147.926 9.52804C147.522 9.28788 147.2 8.96865 146.96 8.57035C146.72 8.16619 146.6 7.7181 146.6 7.22607H148.251C148.251 7.50723 148.348 7.74738 148.541 7.94654C148.74 8.13983 148.98 8.23648 149.261 8.23648C149.542 8.23648 149.779 8.13983 149.972 7.94654C150.171 7.74738 150.27 7.50723 150.27 7.22607H151.921C151.921 7.7181 151.801 8.16619 151.561 8.57035C151.321 8.96865 150.999 9.28788 150.595 9.52804C150.191 9.76819 149.747 9.88827 149.261 9.88827ZM153.098 10.9602V20.4492H151.069V14.255L146.556 20.4492H144.862V10.9602H146.89V16.9962L151.421 10.9602H153.098Z" fill="black"/>
<path d="M71.4728 36.557V27.068H79.7088V36.557H77.5927V29.0537H73.5889V36.557H71.4728Z" fill="black"/>
<path d="M86.4679 36.8206C85.543 36.8206 84.7674 36.601 84.1411 36.1617C83.5147 35.7224 83.0435 35.1249 82.7274 34.3693C82.4113 33.6078 82.2533 32.7556 82.2533 31.8125C82.2533 30.8578 82.4113 30.0026 82.7274 29.247C83.0435 28.4914 83.506 27.8969 84.1147 27.4634C84.7294 27.0241 85.4874 26.8045 86.3888 26.8045C87.2844 26.8045 88.06 27.0241 88.7156 27.4634C89.3771 27.8969 89.8893 28.4914 90.2522 29.247C90.6151 29.9967 90.7966 30.8519 90.7966 31.8125C90.7966 32.7614 90.6181 33.6137 90.261 34.3693C89.9039 35.1249 89.4005 35.7224 88.7508 36.1617C88.101 36.601 87.3401 36.8206 86.4679 36.8206ZM81.8933 40.7744V27.068H83.7635V33.7279H84.0269V40.7744H81.8933ZM86.143 34.9228C86.6932 34.9228 87.1469 34.7852 87.504 34.5099C87.861 34.2346 88.1244 33.8626 88.2942 33.394C88.4698 32.9196 88.5576 32.3924 88.5576 31.8125C88.5576 31.2385 88.4698 30.7172 88.2942 30.2486C88.1186 29.7742 87.8464 29.3993 87.4776 29.124C87.1088 28.8428 86.6406 28.7023 86.0728 28.7023C85.5342 28.7023 85.0952 28.834 84.7557 29.0976C84.4162 29.3554 84.1645 29.7185 84.0006 30.1871C83.8425 30.6498 83.7635 31.1917 83.7635 31.8125C83.7635 32.4276 83.8425 32.9694 84.0006 33.438C84.1645 33.9066 84.4191 34.2727 84.7645 34.5362C85.1157 34.794 85.5752 34.9228 86.143 34.9228Z" fill="black"/>
<path d="M95.1202 36.8206C94.4354 36.8206 93.8559 36.6918 93.3817 36.434C92.9076 36.1705 92.5476 35.8219 92.3017 35.3885C92.0617 34.955 91.9417 34.4777 91.9417 33.9564C91.9417 33.4995 92.0178 33.0895 92.17 32.7263C92.3222 32.3573 92.5564 32.041 92.8725 31.7774C93.1885 31.508 93.5983 31.2883 94.1017 31.1184C94.4822 30.9954 94.9271 30.8841 95.4363 30.7846C95.9514 30.685 96.5075 30.5942 97.1046 30.5122C97.7075 30.4243 98.3368 30.3306 98.9924 30.231L98.2373 30.6616C98.2431 30.0055 98.0968 29.5223 97.7982 29.2119C97.4997 28.9014 96.9963 28.7462 96.288 28.7462C95.8607 28.7462 95.448 28.8458 95.05 29.0449C94.6519 29.2441 94.3739 29.5867 94.2159 30.0729L92.2842 29.4667C92.5183 28.6642 92.9632 28.0199 93.6188 27.5337C94.2802 27.0475 95.17 26.8045 96.288 26.8045C97.1309 26.8045 97.8714 26.9421 98.5094 27.2174C99.1533 27.4927 99.6304 27.9437 99.9406 28.5705C100.11 28.9043 100.213 29.247 100.248 29.5984C100.283 29.944 100.301 30.3218 100.301 30.7318V36.557H98.448V34.5011L98.7553 34.835C98.328 35.5203 97.8275 36.024 97.2539 36.3462C96.6861 36.6625 95.9748 36.8206 95.1202 36.8206ZM95.5417 35.1337C96.0217 35.1337 96.4314 35.0488 96.7709 34.8789C97.1104 34.709 97.3797 34.5011 97.5787 34.2551C97.7836 34.0091 97.9212 33.7777 97.9914 33.561C98.1026 33.2915 98.1641 32.984 98.1758 32.6384C98.1934 32.287 98.2021 32.0029 98.2021 31.7862L98.8519 31.9795C98.2138 32.0791 97.6665 32.1669 97.21 32.2431C96.7534 32.3192 96.3612 32.3924 96.0334 32.4627C95.7056 32.5271 95.4158 32.6004 95.1641 32.6824C94.9183 32.7702 94.7105 32.8727 94.5407 32.9899C94.371 33.107 94.2393 33.2417 94.1456 33.394C94.0578 33.5463 94.0139 33.725 94.0139 33.93C94.0139 34.1643 94.0724 34.3722 94.1895 34.5538C94.3066 34.7295 94.4763 34.8701 94.6988 34.9755C94.9271 35.081 95.208 35.1337 95.5417 35.1337Z" fill="black"/>
<path d="M102.306 36.557L102.323 27.068H104.466V31.6368L107.934 27.068H110.577L106.898 31.8125L110.893 36.557H108.092L104.466 31.9883V36.557H102.306Z" fill="black"/>
<path d="M113.888 36.557V28.9483H110.719V27.068H119.174V28.9483H116.004V36.557H113.888Z" fill="black"/>
<path d="M128.793 27.068V36.557H126.765V30.3628L122.252 36.557H120.557V27.068H122.585V33.1041L127.116 27.068H128.793Z" fill="black"/>
<path d="M130.978 36.557L130.995 27.068H133.138V31.6368L136.606 27.068H139.249L135.57 31.8125L139.565 36.557H136.764L133.138 31.9883V36.557H130.978Z" fill="black"/>
<path d="M141.428 40.7744L143.254 35.7575L143.289 37.2336L139.154 27.068H141.357L144.29 34.589H143.728L146.582 27.068H148.698L143.412 40.7744H141.428Z" fill="black"/>
<path d="M149.726 36.557V27.068H151.465L154.863 33.6225L158.27 27.068H159.999V36.557H157.98V31.3293L155.284 36.557H154.45L151.755 31.3293V36.557H149.726Z" fill="black"/>
<defs>
<linearGradient id="paint0_linear_2076_89" x1="6.14468" y1="13.2971" x2="31.0751" y2="38.0014" gradientUnits="userSpaceOnUse">
<stop stop-color="#3364ED"/>
<stop offset="1" stop-color="#333D90"/>
</linearGradient>
<linearGradient id="paint1_linear_2076_89" x1="30.2295" y1="5.38015" x2="13.2852" y2="22.1707" gradientUnits="userSpaceOnUse">
<stop stop-color="#FFA13D"/>
<stop offset="1" stop-color="#D44239"/>
</linearGradient>
<clipPath id="clip0_2076_89">
<rect width="49.0321" height="46.4515" fill="white" transform="translate(0 0.774414)"/>
</clipPath>
</defs>
</svg>
