<svg width="33" height="32" viewBox="0 0 33 32" fill="none" xmlns="http://www.w3.org/2000/svg">
<path d="M0.666016 3.2C0.666016 1.43269 2.0987 0 3.86602 0H29.466C31.2333 0 32.666 1.43269 32.666 3.2V28.8C32.666 30.5673 31.2333 32 29.466 32H3.86602C2.09871 32 0.666016 30.5673 0.666016 28.8V3.2Z" fill="white"/>
<path d="M12.2427 16.926L14.141 22.1801C14.141 22.1801 14.3783 22.6717 14.6324 22.6717C14.8866 22.6717 18.6664 18.7394 18.6664 18.7394L22.8698 10.6208L12.3104 15.5697L12.2427 16.926Z" fill="#4B4B4B"/>
<path d="M14.7597 18.2734L14.3953 22.1462C14.3953 22.1462 14.2428 23.3329 15.4292 22.1462C16.6156 20.9596 17.7512 20.0445 17.7512 20.0445" fill="#5E5D5D"/>
<path d="M12.277 17.1134L8.37223 15.8412C8.37223 15.8412 7.90556 15.6518 8.05583 15.2225C8.08676 15.134 8.14916 15.0586 8.33583 14.9292C9.20103 14.3261 24.35 8.88117 24.35 8.88117C24.35 8.88117 24.7777 8.73704 25.03 8.8329C25.0924 8.85222 25.1485 8.88777 25.1927 8.93591C25.2368 8.98406 25.2674 9.04306 25.2813 9.1069C25.3086 9.21966 25.32 9.33566 25.3152 9.45157C25.314 9.55184 25.3018 9.64477 25.2926 9.7905C25.2004 11.2792 22.4393 22.3896 22.4393 22.3896C22.4393 22.3896 22.2741 23.0397 21.6822 23.062C21.5368 23.0667 21.3919 23.042 21.2561 22.9895C21.1204 22.937 20.9967 22.8577 20.8922 22.7564C19.7308 21.7573 15.7164 19.0594 14.8293 18.4661C14.8093 18.4525 14.7924 18.4347 14.7799 18.414C14.7673 18.3933 14.7593 18.3701 14.7565 18.3461C14.7441 18.2836 14.8121 18.2061 14.8121 18.2061C14.8121 18.2061 21.8022 11.9928 21.9882 11.3405C22.0026 11.29 21.9482 11.265 21.8752 11.2872C21.4109 11.458 13.3626 16.5405 12.4744 17.1014C12.4104 17.1208 12.3428 17.1249 12.277 17.1134Z" fill="#323232"/>
</svg>
