<svg width="30" height="25" viewBox="0 0 30 25" fill="none" xmlns="http://www.w3.org/2000/svg">
<path fill-rule="evenodd" clip-rule="evenodd" d="M2.34952 10.4651C10.2236 7.03447 15.4742 4.77278 18.1014 3.68005C25.6025 0.560061 27.1611 0.0180871 28.1771 0.000190815C28.4005 -0.00374528 28.9001 0.0516303 29.2237 0.314226C29.497 0.535956 29.5722 0.835482 29.6081 1.04571C29.6441 1.25593 29.6889 1.73483 29.6533 2.10903C29.2468 6.38005 27.488 16.7447 26.5931 21.5283C26.2145 23.5524 25.469 24.2311 24.7472 24.2975C23.1787 24.4419 21.9876 23.2609 20.4684 22.265C18.0911 20.7067 16.7481 19.7366 14.4406 18.216C11.7738 16.4586 13.5025 15.4927 15.0223 13.9142C15.4201 13.5011 22.3311 7.21489 22.4649 6.64464C22.4816 6.57332 22.4971 6.30747 22.3392 6.16709C22.1813 6.02671 21.9482 6.07472 21.78 6.1129C21.5415 6.16701 17.7438 8.67718 10.3868 13.6434C9.30884 14.3836 8.33245 14.7443 7.45763 14.7254C6.49322 14.7046 4.63808 14.1801 3.25897 13.7318C1.56744 13.1819 0.223047 12.8912 0.340114 11.9574C0.40109 11.471 1.07089 10.9736 2.34952 10.4651Z" fill="#AAA9B1"/>
</svg>
