<svg xmlns="http://www.w3.org/2000/svg" width="33" height="30" fill="none"><path fill="#fff" fill-rule="evenodd" d="M2.208 12.512 29.237.862A2 2 0 0 1 30.771.84l.234.094a2 2 0 0 1 1.23 2.185l-4.027 24.166a2 2 0 0 1-1.423 1.594l-1.209.345a2 2 0 0 1-1.9-.449l-4.51-4.134a1 1 0 0 0-1.34-.01l-3.303 2.936a1.839 1.839 0 0 1-2.956-.762L9.289 20.35a2 2 0 0 0-1.084-1.166l-6.007-2.628A2 2 0 0 1 1 14.724v-.376a2 2 0 0 1 1.208-1.836ZM29.65 4.9 25.5 27.032a.46.46 0 0 0-.147-.43l-6.231-5.519a1 1 0 0 0-1.277-.04l-3.806 2.96a.262.262 0 0 0-.064.071c-.164.273-.58.072-.468-.226l1.94-5.172a.764.764 0 0 1 .158-.255l7.838-8.327c.038-.041.072-.085.104-.131l.948-1.423a.09.09 0 0 1 .011-.014c.075-.074-.018-.194-.108-.14l-13.506 7.917a1 1 0 0 1-.822.086l-5.554-1.851a.101.101 0 0 0-.033-.005c-.11 0-.142-.151-.04-.196L28.262 3.8A1 1 0 0 1 29.65 4.9Z" clip-rule="evenodd"/><path fill="#fff" d="m29.237.861.02.046-.02-.046ZM2.208 12.511l.02.046-.02-.045ZM30.771.842l.019-.046-.019.046Zm.234.094-.018.046.018-.046Zm1.23 2.185.05.009-.05-.009Zm-4.027 24.166.05.008-.05-.009Zm-1.423 1.594.013.048-.013-.048Zm-1.209.345-.014-.048.014.048Zm-1.9-.449.033-.037-.034.037Zm-4.51-4.134-.034.037.033-.037Zm-1.34-.01-.034-.037.033.037Zm-3.303 2.936-.034-.037.034.037Zm-2.956-.762-.047.016.047-.016ZM9.289 20.35l.047-.017-.047.017Zm-1.084-1.166-.02.045.02-.046Zm-6.007-2.628-.02.046.02-.046ZM29.65 4.9l-.05-.01.05.01Zm-4.297 21.703-.034.037.034-.037Zm-6.231-5.52.033-.037-.033.037Zm-1.277-.04-.031-.04.03.04Zm-3.806 2.96-.031-.04.03.04Zm-.064.071-.043-.025.043.025Zm-.468-.226-.047-.017.047.017Zm1.94-5.172-.048-.017.047.017Zm.158-.255.037.034-.037-.034Zm7.838-8.327.036.034-.036-.034Zm.104-.131-.042-.028.042.028Zm.948-1.423-.042-.028.042.028Zm.011-.014.036.036-.036-.036Zm-.108-.14-.026-.044.026.044Zm-13.506 7.917-.026-.043.026.043Zm-.822.086-.016.047.015-.047Zm-5.554-1.851.016-.048-.016.048Zm-.074-.201.02.046-.02-.046ZM28.262 3.8l.02.046-.02-.046Zm.955-2.986L2.19 12.465l.04.092L29.256.907l-.04-.092Zm1.573-.02a2.05 2.05 0 0 0-1.573.02l.04.092a1.95 1.95 0 0 1 1.496-.02l.037-.092Zm.234.093L30.79.795l-.037.092.234.094.037-.093Zm1.26 2.24a2.05 2.05 0 0 0-1.26-2.24l-.037.093a1.95 1.95 0 0 1 1.199 2.131l.099.017Zm-4.027 24.166 4.028-24.165-.099-.017-4.027 24.165.098.017Zm-1.459 1.634a2.05 2.05 0 0 0 1.46-1.634l-.1-.017a1.95 1.95 0 0 1-1.387 1.555l.027.096Zm-1.208.345 1.208-.345-.027-.096-1.209.345.028.096Zm-1.949-.46a2.05 2.05 0 0 0 1.949.46l-.028-.096a1.95 1.95 0 0 1-1.853-.438l-.068.074Zm-4.51-4.134 4.51 4.134.068-.074-4.51-4.133-.067.073Zm-1.273-.01a.95.95 0 0 1 1.274.01l.067-.073a1.05 1.05 0 0 0-1.407-.011l.066.075Zm-3.302 2.936 3.303-2.936-.067-.074-3.303 2.936.067.074Zm-1.255.477c.463 0 .909-.17 1.255-.477l-.067-.074c-.327.29-.75.452-1.188.452v.1Zm-1.781-1.26c.266.756.98 1.26 1.78 1.26v-.1a1.789 1.789 0 0 1-1.686-1.193l-.094.033Zm-2.278-6.454 2.278 6.454.094-.033-2.278-6.455-.094.034ZM8.185 19.23a1.95 1.95 0 0 1 1.057 1.138l.094-.034a2.05 2.05 0 0 0-1.111-1.195l-.04.091Zm-6.007-2.627 6.007 2.627.04-.091-6.007-2.628-.04.092ZM.95 14.724a2.05 2.05 0 0 0 1.228 1.879l.04-.092a1.95 1.95 0 0 1-1.168-1.787h-.1Zm0-.376v.376h.1v-.376h-.1Zm1.239-1.882A2.05 2.05 0 0 0 .95 14.348h.1a1.95 1.95 0 0 1 1.178-1.79l-.04-.092Zm23.36 14.576L29.7 4.909l-.098-.018-4.15 22.132.098.019Zm-.23-.402a.41.41 0 0 1 .132.383l.098.019a.51.51 0 0 0-.163-.477l-.066.075Zm-6.23-5.52 6.23 5.52.067-.075-6.231-5.52-.067.075Zm-1.214-.038a.95.95 0 0 1 1.213.038l.067-.074a1.05 1.05 0 0 0-1.341-.043l.061.079Zm-3.806 2.96 3.806-2.96-.061-.08-3.806 2.961.061.079Zm-.051.058a.211.211 0 0 1 .051-.058l-.061-.079a.31.31 0 0 0-.076.086l.086.051Zm-.558-.27c-.133.355.363.595.558.27l-.086-.051c-.132.22-.469.058-.379-.183l-.093-.035Zm1.94-5.171-1.94 5.172.093.035 1.94-5.172-.094-.035Zm.169-.272a.812.812 0 0 0-.17.272l.094.035a.715.715 0 0 1 .149-.239l-.073-.068Zm7.837-8.328-7.837 8.328.073.068 7.837-8.327-.073-.069Zm.099-.124a.955.955 0 0 1-.099.124l.073.069c.04-.043.077-.089.11-.137l-.084-.056Zm.948-1.423-.948 1.423.083.056.949-1.423-.084-.056Zm.018-.021a.14.14 0 0 0-.018.021l.084.056a.038.038 0 0 1 .005-.006l-.071-.071Zm-.048-.062c.04-.024.08.029.048.062l.07.07c.116-.115-.027-.301-.169-.219l.05.087Zm-13.506 7.917L24.423 8.43l-.05-.087-13.507 7.918.05.086Zm-.863.09c.287.096.601.063.863-.09l-.05-.086a.95.95 0 0 1-.782.081l-.031.095ZM4.5 14.586l5.554 1.85.031-.095-5.553-1.85-.032.094Zm-.017-.004c.006 0 .012.001.017.003l.032-.095a.151.151 0 0 0-.049-.008v.1Zm-.061-.29c-.15.066-.103.29.061.29v-.1c-.056 0-.072-.077-.02-.1l-.041-.09Zm23.82-10.537L4.422 14.291l.04.092 23.82-10.536-.04-.092ZM29.7 4.91a1.05 1.05 0 0 0-1.457-1.154l.04.092a.95.95 0 0 1 1.319 1.044l.098.018Z"/></svg>