<svg width="32" height="32" viewBox="0 0 32 32" fill="none" xmlns="http://www.w3.org/2000/svg">
<path d="M0 3.2C0 1.43269 1.43269 0 3.2 0H28.8C30.5673 0 32 1.43269 32 3.2V28.8C32 30.5673 30.5673 32 28.8 32H3.2C1.43269 32 0 30.5673 0 28.8V3.2Z" fill="white"/>
<path d="M16.9066 22.6C9.61327 22.6 5.45333 17.6 5.28 9.28H8.93333C9.05333 15.3867 11.7466 17.9733 13.8799 18.5067V9.28H17.3201V14.5467C19.4267 14.32 21.6398 11.92 22.3865 9.28H25.8265C25.2532 12.5333 22.8532 14.9333 21.1465 15.92C22.8532 16.72 25.5867 18.8133 26.6267 22.6H22.8399C22.0265 20.0667 20.0001 18.1067 17.3201 17.84V22.6H16.9066Z" fill="#323232"/>
</svg>
