<svg width="30" height="30" fill="none" xmlns="http://www.w3.org/2000/svg"><path fill-rule="evenodd" clip-rule="evenodd" d="M3 0a3 3 0 0 0-3 3v24a3 3 0 0 0 3 3h24a3 3 0 0 0 3-3V3a3 3 0 0 0-3-3H3Zm4.553 10h1.829a1 1 0 0 1 .894.553l2.139 4.276a.309.309 0 0 0 .585-.138V11a1 1 0 0 1 1-1h2a1 1 0 0 1 1 1v3.382a.618.618 0 0 0 1.17.276l2.054-4.105a1 1 0 0 1 .894-.553h2.116a1 1 0 0 1 .857 1.514l-1.949 3.248a1 1 0 0 0-.142.515v.36a1 1 0 0 0 .232.641l2.098 2.518A.734.734 0 0 1 23.766 20h-2.852a1 1 0 0 1-.707-.293l-1.414-1.414a1 1 0 0 0-.707-.293H18a1 1 0 0 0-1 1 1 1 0 0 1-1 1h-2.586a1 1 0 0 1-.707-.293L10.55 17.55a.997.997 0 0 1-.093-.107L9 15.5l-1.75-2.75-.607-1.336A1 1 0 0 1 7.553 10Z" fill="#fff"/></svg>